<?xml version="1.0" encoding="UTF-8" standalone="yes"?><svg xmlns="http://www.w3.org/2000/svg" xmlns:xlink="http://www.w3.org/1999/xlink" height="530px" style="width:1433px;height:530px;" version="1.1" viewBox="0 0 1433 530" width="1433px"><defs><filter height="300%" id="f1" width="300%" x="-1" y="-1"><feGaussianBlur result="blurOut" stdDeviation="2.0"/><feColorMatrix in="blurOut" result="blurOut2" type="matrix" values="0 0 0 0 0 0 0 0 0 0 0 0 0 0 0 0 0 0 .4 0"/><feOffset dx="4.0" dy="4.0" in="blurOut2" result="blurOut3"/><feBlend in="SourceGraphic" in2="blurOut3" mode="normal"/></filter></defs><g><rect fill="#FEFECE" filter="url(#f1)" height="99.2188" style="stroke: #A80036; stroke-width: 1.5;" width="110" x="1039" y="422.5"/><ellipse cx="1063" cy="438.5" fill="#ADD1B2" rx="11" ry="11" style="stroke: #A80036; stroke-width: 1.0;"/><path d="M1065.9688,444.1406 Q1065.3906,444.4375 1064.75,444.5859 Q1064.1094,444.7344 1063.4063,444.7344 Q1060.9063,444.7344 1059.5859,443.0859 Q1058.2656,441.4375 1058.2656,438.3125 Q1058.2656,435.1875 1059.5859,433.5313 Q1060.9063,431.875 1063.4063,431.875 Q1064.1094,431.875 1064.7578,432.0313 Q1065.4063,432.1875 1065.9688,432.4844 L1065.9688,435.2031 Q1065.3438,434.625 1064.75,434.3516 Q1064.1563,434.0781 1063.5313,434.0781 Q1062.1875,434.0781 1061.5,435.1484 Q1060.8125,436.2188 1060.8125,438.3125 Q1060.8125,440.4063 1061.5,441.4766 Q1062.1875,442.5469 1063.5313,442.5469 Q1064.1563,442.5469 1064.75,442.2734 Q1065.3438,442 1065.9688,441.4219 L1065.9688,444.1406 Z "/><text fill="#000000" font-family="sans-serif" font-size="12" lengthAdjust="spacingAndGlyphs" textLength="58" x="1079" y="442.6543">IPDPlayer</text><line style="stroke: #A80036; stroke-width: 1.5;" x1="1040" x2="1148" y1="454.5" y2="454.5"/><ellipse cx="1050" cy="466.4023" fill="none" rx="3" ry="3" style="stroke: #038048; stroke-width: 1.0;"/><text fill="#000000" font-family="sans-serif" font-size="11" lengthAdjust="spacingAndGlyphs" textLength="10" x="1059" y="468.7104">id</text><rect fill="none" height="6" style="stroke: #C82930; stroke-width: 1.0;" width="6" x="1047" y="476.207"/><text fill="#000000" font-family="sans-serif" font-size="11" lengthAdjust="spacingAndGlyphs" textLength="30" x="1059" y="481.5151">_type</text><rect fill="none" height="6" style="stroke: #C82930; stroke-width: 1.0;" width="6" x="1047" y="489.0117"/><text fill="#000000" font-family="sans-serif" font-size="11" lengthAdjust="spacingAndGlyphs" textLength="64" x="1059" y="494.3198">_ingame_id</text><line style="stroke: #A80036; stroke-width: 1.0;" x1="1040" x2="1148" y1="500.9141" y2="500.9141"/><ellipse cx="1050" cy="512.8164" fill="#84BE84" rx="3" ry="3" style="stroke: #038048; stroke-width: 1.0;"/><text fill="#000000" font-family="sans-serif" font-size="11" lengthAdjust="spacingAndGlyphs" textLength="84" x="1059" y="515.1245">act(game, iter)</text><rect fill="#FEFECE" filter="url(#f1)" height="73.6094" style="stroke: #A80036; stroke-width: 1.5;" width="109" x="345.75" y="282"/><ellipse cx="370.2" cy="298" fill="#ADD1B2" rx="11" ry="11" style="stroke: #A80036; stroke-width: 1.0;"/><path d="M373.1688,303.6406 Q372.5906,303.9375 371.95,304.0859 Q371.3094,304.2344 370.6063,304.2344 Q368.1063,304.2344 366.7859,302.5859 Q365.4656,300.9375 365.4656,297.8125 Q365.4656,294.6875 366.7859,293.0313 Q368.1063,291.375 370.6063,291.375 Q371.3094,291.375 371.9578,291.5313 Q372.6063,291.6875 373.1688,291.9844 L373.1688,294.7031 Q372.5438,294.125 371.95,293.8516 Q371.3563,293.5781 370.7313,293.5781 Q369.3875,293.5781 368.7,294.6484 Q368.0125,295.7188 368.0125,297.8125 Q368.0125,299.9063 368.7,300.9766 Q369.3875,302.0469 370.7313,302.0469 Q371.3563,302.0469 371.95,301.7734 Q372.5438,301.5 373.1688,300.9219 L373.1688,303.6406 Z "/><text fill="#000000" font-family="sans-serif" font-size="12" lengthAdjust="spacingAndGlyphs" textLength="56" x="386.3" y="302.1543">M1Player</text><line style="stroke: #A80036; stroke-width: 1.5;" x1="346.75" x2="453.75" y1="314" y2="314"/><rect fill="none" height="6" style="stroke: #C82930; stroke-width: 1.0;" width="6" x="353.75" y="322.9023"/><text fill="#000000" font-family="sans-serif" font-size="11" lengthAdjust="spacingAndGlyphs" textLength="72" x="365.75" y="328.2104">_cond_probs</text><rect fill="none" height="6" style="stroke: #C82930; stroke-width: 1.0;" width="6" x="353.75" y="335.707"/><text fill="#000000" font-family="sans-serif" font-size="11" lengthAdjust="spacingAndGlyphs" textLength="83" x="365.75" y="341.0151">_default_policy</text><line style="stroke: #A80036; stroke-width: 1.5;" x1="346.75" x2="453.75" y1="347.6094" y2="347.6094"/><rect fill="#FEFECE" filter="url(#f1)" height="73.6094" style="stroke: #A80036; stroke-width: 1.5;" width="111" x="202.75" y="142"/><ellipse cx="226.75" cy="158" fill="#ADD1B2" rx="11" ry="11" style="stroke: #A80036; stroke-width: 1.0;"/><path d="M229.7188,163.6406 Q229.1406,163.9375 228.5,164.0859 Q227.8594,164.2344 227.1563,164.2344 Q224.6563,164.2344 223.3359,162.5859 Q222.0156,160.9375 222.0156,157.8125 Q222.0156,154.6875 223.3359,153.0313 Q224.6563,151.375 227.1563,151.375 Q227.8594,151.375 228.5078,151.5313 Q229.1563,151.6875 229.7188,151.9844 L229.7188,154.7031 Q229.0938,154.125 228.5,153.8516 Q227.9063,153.5781 227.2813,153.5781 Q225.9375,153.5781 225.25,154.6484 Q224.5625,155.7188 224.5625,157.8125 Q224.5625,159.9063 225.25,160.9766 Q225.9375,162.0469 227.2813,162.0469 Q227.9063,162.0469 228.5,161.7734 Q229.0938,161.5 229.7188,160.9219 L229.7188,163.6406 Z "/><text fill="#000000" font-family="sans-serif" font-size="12" lengthAdjust="spacingAndGlyphs" textLength="59" x="242.75" y="162.1543">TFTPlayer</text><line style="stroke: #A80036; stroke-width: 1.5;" x1="203.75" x2="312.75" y1="174" y2="174"/><rect fill="none" height="6" style="stroke: #C82930; stroke-width: 1.0;" width="6" x="210.75" y="182.9023"/><text fill="#000000" font-family="sans-serif" font-size="11" lengthAdjust="spacingAndGlyphs" textLength="85" x="222.75" y="188.2104">_cond_probs_0</text><rect fill="none" height="6" style="stroke: #C82930; stroke-width: 1.0;" width="6" x="210.75" y="195.707"/><text fill="#000000" font-family="sans-serif" font-size="11" lengthAdjust="spacingAndGlyphs" textLength="85" x="222.75" y="201.0151">_cond_probs_1</text><line style="stroke: #A80036; stroke-width: 1.5;" x1="203.75" x2="312.75" y1="207.6094" y2="207.6094"/><rect fill="#FEFECE" filter="url(#f1)" height="48" style="stroke: #A80036; stroke-width: 1.5;" width="103" x="348.75" y="155"/><ellipse cx="363.75" cy="171" fill="#ADD1B2" rx="11" ry="11" style="stroke: #A80036; stroke-width: 1.0;"/><path d="M366.7188,176.6406 Q366.1406,176.9375 365.5,177.0859 Q364.8594,177.2344 364.1563,177.2344 Q361.6563,177.2344 360.3359,175.5859 Q359.0156,173.9375 359.0156,170.8125 Q359.0156,167.6875 360.3359,166.0313 Q361.6563,164.375 364.1563,164.375 Q364.8594,164.375 365.5078,164.5313 Q366.1563,164.6875 366.7188,164.9844 L366.7188,167.7031 Q366.0938,167.125 365.5,166.8516 Q364.9063,166.5781 364.2813,166.5781 Q362.9375,166.5781 362.25,167.6484 Q361.5625,168.7188 361.5625,170.8125 Q361.5625,172.9063 362.25,173.9766 Q362.9375,175.0469 364.2813,175.0469 Q364.9063,175.0469 365.5,174.7734 Q366.0938,174.5 366.7188,173.9219 L366.7188,176.6406 Z "/><text fill="#000000" font-family="sans-serif" font-size="12" lengthAdjust="spacingAndGlyphs" textLength="71" x="377.75" y="175.1543">WSLSPlayer</text><line style="stroke: #A80036; stroke-width: 1.5;" x1="349.75" x2="450.75" y1="187" y2="187"/><line style="stroke: #A80036; stroke-width: 1.5;" x1="349.75" x2="450.75" y1="195" y2="195"/><rect fill="#FEFECE" filter="url(#f1)" height="86.4141" style="stroke: #A80036; stroke-width: 1.5;" width="114" x="753" y="276"/><ellipse cx="777" cy="292" fill="#ADD1B2" rx="11" ry="11" style="stroke: #A80036; stroke-width: 1.0;"/><path d="M779.9688,297.6406 Q779.3906,297.9375 778.75,298.0859 Q778.1094,298.2344 777.4063,298.2344 Q774.9063,298.2344 773.5859,296.5859 Q772.2656,294.9375 772.2656,291.8125 Q772.2656,288.6875 773.5859,287.0313 Q774.9063,285.375 777.4063,285.375 Q778.1094,285.375 778.7578,285.5313 Q779.4063,285.6875 779.9688,285.9844 L779.9688,288.7031 Q779.3438,288.125 778.75,287.8516 Q778.1563,287.5781 777.5313,287.5781 Q776.1875,287.5781 775.5,288.6484 Q774.8125,289.7188 774.8125,291.8125 Q774.8125,293.9063 775.5,294.9766 Q776.1875,296.0469 777.5313,296.0469 Q778.1563,296.0469 778.75,295.7734 Q779.3438,295.5 779.9688,294.9219 L779.9688,297.6406 Z "/><text fill="#000000" font-family="sans-serif" font-size="12" lengthAdjust="spacingAndGlyphs" textLength="62" x="793" y="296.1543">PERPlayer</text><line style="stroke: #A80036; stroke-width: 1.5;" x1="754" x2="866" y1="308" y2="308"/><rect fill="none" height="6" style="stroke: #C82930; stroke-width: 1.0;" width="6" x="761" y="316.9023"/><text fill="#000000" font-family="sans-serif" font-size="11" lengthAdjust="spacingAndGlyphs" textLength="47" x="773" y="322.2104">_pattern</text><rect fill="none" height="6" style="stroke: #C82930; stroke-width: 1.0;" width="6" x="761" y="329.707"/><text fill="#000000" font-family="sans-serif" font-size="11" lengthAdjust="spacingAndGlyphs" textLength="88" x="773" y="335.0151">_pattern_length</text><rect fill="none" height="6" style="stroke: #C82930; stroke-width: 1.0;" width="6" x="761" y="342.5117"/><text fill="#000000" font-family="sans-serif" font-size="11" lengthAdjust="spacingAndGlyphs" textLength="27" x="773" y="347.8198">_pos</text><line style="stroke: #A80036; stroke-width: 1.5;" x1="754" x2="866" y1="354.4141" y2="354.4141"/><rect fill="#FEFECE" filter="url(#f1)" height="48" style="stroke: #A80036; stroke-width: 1.5;" width="103" x="486.75" y="155"/><ellipse cx="501.75" cy="171" fill="#ADD1B2" rx="11" ry="11" style="stroke: #A80036; stroke-width: 1.0;"/><path d="M504.7188,176.6406 Q504.1406,176.9375 503.5,177.0859 Q502.8594,177.2344 502.1563,177.2344 Q499.6563,177.2344 498.3359,175.5859 Q497.0156,173.9375 497.0156,170.8125 Q497.0156,167.6875 498.3359,166.0313 Q499.6563,164.375 502.1563,164.375 Q502.8594,164.375 503.5078,164.5313 Q504.1563,164.6875 504.7188,164.9844 L504.7188,167.7031 Q504.0938,167.125 503.5,166.8516 Q502.9063,166.5781 502.2813,166.5781 Q500.9375,166.5781 500.25,167.6484 Q499.5625,168.7188 499.5625,170.8125 Q499.5625,172.9063 500.25,173.9766 Q500.9375,175.0469 502.2813,175.0469 Q502.9063,175.0469 503.5,174.7734 Q504.0938,174.5 504.7188,173.9219 L504.7188,176.6406 Z "/><text fill="#000000" font-family="sans-serif" font-size="12" lengthAdjust="spacingAndGlyphs" textLength="71" x="515.75" y="175.1543">PCCDPlayer</text><line style="stroke: #A80036; stroke-width: 1.5;" x1="487.75" x2="588.75" y1="187" y2="187"/><line style="stroke: #A80036; stroke-width: 1.5;" x1="487.75" x2="588.75" y1="195" y2="195"/><rect fill="#FEFECE" filter="url(#f1)" height="48" style="stroke: #A80036; stroke-width: 1.5;" width="104" x="625" y="155"/><ellipse cx="640" cy="171" fill="#ADD1B2" rx="11" ry="11" style="stroke: #A80036; stroke-width: 1.0;"/><path d="M642.9688,176.6406 Q642.3906,176.9375 641.75,177.0859 Q641.1094,177.2344 640.4063,177.2344 Q637.9063,177.2344 636.5859,175.5859 Q635.2656,173.9375 635.2656,170.8125 Q635.2656,167.6875 636.5859,166.0313 Q637.9063,164.375 640.4063,164.375 Q641.1094,164.375 641.7578,164.5313 Q642.4063,164.6875 642.9688,164.9844 L642.9688,167.7031 Q642.3438,167.125 641.75,166.8516 Q641.1563,166.5781 640.5313,166.5781 Q639.1875,166.5781 638.5,167.6484 Q637.8125,168.7188 637.8125,170.8125 Q637.8125,172.9063 638.5,173.9766 Q639.1875,175.0469 640.5313,175.0469 Q641.1563,175.0469 641.75,174.7734 Q642.3438,174.5 642.9688,173.9219 L642.9688,176.6406 Z "/><text fill="#000000" font-family="sans-serif" font-size="12" lengthAdjust="spacingAndGlyphs" textLength="72" x="654" y="175.1543">PDDCPlayer</text><line style="stroke: #A80036; stroke-width: 1.5;" x1="626" x2="728" y1="187" y2="187"/><line style="stroke: #A80036; stroke-width: 1.5;" x1="626" x2="728" y1="195" y2="195"/><rect fill="#FEFECE" filter="url(#f1)" height="73.6094" style="stroke: #A80036; stroke-width: 1.5;" width="112" x="1038.5" y="282"/><ellipse cx="1064.75" cy="298" fill="#ADD1B2" rx="11" ry="11" style="stroke: #A80036; stroke-width: 1.0;"/><path d="M1067.7188,303.6406 Q1067.1406,303.9375 1066.5,304.0859 Q1065.8594,304.2344 1065.1563,304.2344 Q1062.6563,304.2344 1061.3359,302.5859 Q1060.0156,300.9375 1060.0156,297.8125 Q1060.0156,294.6875 1061.3359,293.0313 Q1062.6563,291.375 1065.1563,291.375 Q1065.8594,291.375 1066.5078,291.5313 Q1067.1563,291.6875 1067.7188,291.9844 L1067.7188,294.7031 Q1067.0938,294.125 1066.5,293.8516 Q1065.9063,293.5781 1065.2813,293.5781 Q1063.9375,293.5781 1063.25,294.6484 Q1062.5625,295.7188 1062.5625,297.8125 Q1062.5625,299.9063 1063.25,300.9766 Q1063.9375,302.0469 1065.2813,302.0469 Q1065.9063,302.0469 1066.5,301.7734 Q1067.0938,301.5 1067.7188,300.9219 L1067.7188,303.6406 Z "/><text fill="#000000" font-family="sans-serif" font-size="12" lengthAdjust="spacingAndGlyphs" textLength="55" x="1081.25" y="302.1543">HBPlayer</text><line style="stroke: #A80036; stroke-width: 1.5;" x1="1039.5" x2="1149.5" y1="314" y2="314"/><rect fill="none" height="6" style="stroke: #C82930; stroke-width: 1.0;" width="6" x="1046.5" y="322.9023"/><text fill="#000000" font-family="sans-serif" font-size="11" lengthAdjust="spacingAndGlyphs" textLength="86" x="1058.5" y="328.2104">_history_length</text><rect fill="none" height="6" style="stroke: #C82930; stroke-width: 1.0;" width="6" x="1046.5" y="335.707"/><text fill="#000000" font-family="sans-serif" font-size="11" lengthAdjust="spacingAndGlyphs" textLength="83" x="1058.5" y="341.0151">_default_policy</text><line style="stroke: #A80036; stroke-width: 1.5;" x1="1039.5" x2="1149.5" y1="347.6094" y2="347.6094"/><rect fill="#FEFECE" filter="url(#f1)" height="60.8047" style="stroke: #A80036; stroke-width: 1.5;" width="100" x="1185" y="288.5"/><ellipse cx="1200" cy="304.5" fill="#ADD1B2" rx="11" ry="11" style="stroke: #A80036; stroke-width: 1.0;"/><path d="M1202.9688,310.1406 Q1202.3906,310.4375 1201.75,310.5859 Q1201.1094,310.7344 1200.4063,310.7344 Q1197.9063,310.7344 1196.5859,309.0859 Q1195.2656,307.4375 1195.2656,304.3125 Q1195.2656,301.1875 1196.5859,299.5313 Q1197.9063,297.875 1200.4063,297.875 Q1201.1094,297.875 1201.7578,298.0313 Q1202.4063,298.1875 1202.9688,298.4844 L1202.9688,301.2031 Q1202.3438,300.625 1201.75,300.3516 Q1201.1563,300.0781 1200.5313,300.0781 Q1199.1875,300.0781 1198.5,301.1484 Q1197.8125,302.2188 1197.8125,304.3125 Q1197.8125,306.4063 1198.5,307.4766 Q1199.1875,308.5469 1200.5313,308.5469 Q1201.1563,308.5469 1201.75,308.2734 Q1202.3438,308 1202.9688,307.4219 L1202.9688,310.1406 Z "/><text fill="#000000" font-family="sans-serif" font-size="12" lengthAdjust="spacingAndGlyphs" textLength="68" x="1214" y="308.6543">GRIMPlayer</text><line style="stroke: #A80036; stroke-width: 1.5;" x1="1186" x2="1284" y1="320.5" y2="320.5"/><rect fill="none" height="6" style="stroke: #C82930; stroke-width: 1.0;" width="6" x="1193" y="329.4023"/><text fill="#000000" font-family="sans-serif" font-size="11" lengthAdjust="spacingAndGlyphs" textLength="58" x="1205" y="334.7104">_defecting</text><line style="stroke: #A80036; stroke-width: 1.5;" x1="1186" x2="1284" y1="341.3047" y2="341.3047"/><rect fill="#FEFECE" filter="url(#f1)" height="73.6094" style="stroke: #A80036; stroke-width: 1.5;" width="148" x="1020" y="142"/><ellipse cx="1058.85" cy="158" fill="#ADD1B2" rx="11" ry="11" style="stroke: #A80036; stroke-width: 1.0;"/><path d="M1061.8188,163.6406 Q1061.2406,163.9375 1060.6,164.0859 Q1059.9594,164.2344 1059.2563,164.2344 Q1056.7563,164.2344 1055.4359,162.5859 Q1054.1156,160.9375 1054.1156,157.8125 Q1054.1156,154.6875 1055.4359,153.0313 Q1056.7563,151.375 1059.2563,151.375 Q1059.9594,151.375 1060.6078,151.5313 Q1061.2563,151.6875 1061.8188,151.9844 L1061.8188,154.7031 Q1061.1938,154.125 1060.6,153.8516 Q1060.0063,153.5781 1059.3813,153.5781 Q1058.0375,153.5781 1057.35,154.6484 Q1056.6625,155.7188 1056.6625,157.8125 Q1056.6625,159.9063 1057.35,160.9766 Q1058.0375,162.0469 1059.3813,162.0469 Q1060.0063,162.0469 1060.6,161.7734 Q1061.1938,161.5 1061.8188,160.9219 L1061.8188,163.6406 Z "/><text fill="#000000" font-family="sans-serif" font-size="12" lengthAdjust="spacingAndGlyphs" textLength="63" x="1078.15" y="162.1543">PHBPlayer</text><line style="stroke: #A80036; stroke-width: 1.5;" x1="1021" x2="1167" y1="174" y2="174"/><rect fill="none" height="6" style="stroke: #C82930; stroke-width: 1.0;" width="6" x="1028" y="182.9023"/><text fill="#000000" font-family="sans-serif" font-size="11" lengthAdjust="spacingAndGlyphs" textLength="37" x="1040" y="188.2104">_alpha</text><line style="stroke: #A80036; stroke-width: 1.0;" x1="1021" x2="1167" y1="194.8047" y2="194.8047"/><rect fill="#F24D5C" height="6" style="stroke: #C82930; stroke-width: 1.0;" width="6" x="1028" y="203.707"/><text fill="#000000" font-family="sans-serif" font-size="11" lengthAdjust="spacingAndGlyphs" textLength="122" x="1040" y="209.0151">_predict_next(history)</text><rect fill="#FEFECE" filter="url(#f1)" height="48" style="stroke: #A80036; stroke-width: 1.5;" width="90" x="1203" y="155"/><ellipse cx="1218" cy="171" fill="#ADD1B2" rx="11" ry="11" style="stroke: #A80036; stroke-width: 1.0;"/><path d="M1220.9688,176.6406 Q1220.3906,176.9375 1219.75,177.0859 Q1219.1094,177.2344 1218.4063,177.2344 Q1215.9063,177.2344 1214.5859,175.5859 Q1213.2656,173.9375 1213.2656,170.8125 Q1213.2656,167.6875 1214.5859,166.0313 Q1215.9063,164.375 1218.4063,164.375 Q1219.1094,164.375 1219.7578,164.5313 Q1220.4063,164.6875 1220.9688,164.9844 L1220.9688,167.7031 Q1220.3438,167.125 1219.75,166.8516 Q1219.1563,166.5781 1218.5313,166.5781 Q1217.1875,166.5781 1216.5,167.6484 Q1215.8125,168.7188 1215.8125,170.8125 Q1215.8125,172.9063 1216.5,173.9766 Q1217.1875,175.0469 1218.5313,175.0469 Q1219.1563,175.0469 1219.75,174.7734 Q1220.3438,174.5 1220.9688,173.9219 L1220.9688,176.6406 Z "/><text fill="#000000" font-family="sans-serif" font-size="12" lengthAdjust="spacingAndGlyphs" textLength="58" x="1232" y="175.1543">SMPlauer</text><line style="stroke: #A80036; stroke-width: 1.5;" x1="1204" x2="1292" y1="187" y2="187"/><line style="stroke: #A80036; stroke-width: 1.5;" x1="1204" x2="1292" y1="195" y2="195"/><rect fill="#FEFECE" filter="url(#f1)" height="48" style="stroke: #A80036; stroke-width: 1.5;" width="89" x="1328.75" y="155"/><ellipse cx="1343.75" cy="171" fill="#ADD1B2" rx="11" ry="11" style="stroke: #A80036; stroke-width: 1.0;"/><path d="M1346.7188,176.6406 Q1346.1406,176.9375 1345.5,177.0859 Q1344.8594,177.2344 1344.1563,177.2344 Q1341.6563,177.2344 1340.3359,175.5859 Q1339.0156,173.9375 1339.0156,170.8125 Q1339.0156,167.6875 1340.3359,166.0313 Q1341.6563,164.375 1344.1563,164.375 Q1344.8594,164.375 1345.5078,164.5313 Q1346.1563,164.6875 1346.7188,164.9844 L1346.7188,167.7031 Q1346.0938,167.125 1345.5,166.8516 Q1344.9063,166.5781 1344.2813,166.5781 Q1342.9375,166.5781 1342.25,167.6484 Q1341.5625,168.7188 1341.5625,170.8125 Q1341.5625,172.9063 1342.25,173.9766 Q1342.9375,175.0469 1344.2813,175.0469 Q1344.9063,175.0469 1345.5,174.7734 Q1346.0938,174.5 1346.7188,173.9219 L1346.7188,176.6406 Z "/><text fill="#000000" font-family="sans-serif" font-size="12" lengthAdjust="spacingAndGlyphs" textLength="57" x="1357.75" y="175.1543">HMPlayer</text><line style="stroke: #A80036; stroke-width: 1.5;" x1="1329.75" x2="1416.75" y1="187" y2="187"/><line style="stroke: #A80036; stroke-width: 1.5;" x1="1329.75" x2="1416.75" y1="195" y2="195"/><rect fill="#FEFECE" filter="url(#f1)" height="60.8047" style="stroke: #A80036; stroke-width: 1.5;" width="100" x="6" y="14.5"/><ellipse cx="21" cy="30.5" fill="#ADD1B2" rx="11" ry="11" style="stroke: #A80036; stroke-width: 1.0;"/><path d="M23.9688,36.1406 Q23.3906,36.4375 22.75,36.5859 Q22.1094,36.7344 21.4063,36.7344 Q18.9063,36.7344 17.5859,35.0859 Q16.2656,33.4375 16.2656,30.3125 Q16.2656,27.1875 17.5859,25.5313 Q18.9063,23.875 21.4063,23.875 Q22.1094,23.875 22.7578,24.0313 Q23.4063,24.1875 23.9688,24.4844 L23.9688,27.2031 Q23.3438,26.625 22.75,26.3516 Q22.1563,26.0781 21.5313,26.0781 Q20.1875,26.0781 19.5,27.1484 Q18.8125,28.2188 18.8125,30.3125 Q18.8125,32.4063 19.5,33.4766 Q20.1875,34.5469 21.5313,34.5469 Q22.1563,34.5469 22.75,34.2734 Q23.3438,34 23.9688,33.4219 L23.9688,36.1406 Z "/><text fill="#000000" font-family="sans-serif" font-size="12" lengthAdjust="spacingAndGlyphs" textLength="68" x="35" y="34.6543">GTFTPlayer</text><line style="stroke: #A80036; stroke-width: 1.5;" x1="7" x2="105" y1="46.5" y2="46.5"/><rect fill="none" height="6" style="stroke: #C82930; stroke-width: 1.0;" width="6" x="14" y="55.4023"/><text fill="#000000" font-family="sans-serif" font-size="11" lengthAdjust="spacingAndGlyphs" textLength="35" x="26" y="60.7104">_theta</text><line style="stroke: #A80036; stroke-width: 1.5;" x1="7" x2="105" y1="67.3047" y2="67.3047"/><rect fill="#FEFECE" filter="url(#f1)" height="73.6094" style="stroke: #A80036; stroke-width: 1.5;" width="99" x="141.75" y="8"/><ellipse cx="156.75" cy="24" fill="#ADD1B2" rx="11" ry="11" style="stroke: #A80036; stroke-width: 1.0;"/><path d="M159.7188,29.6406 Q159.1406,29.9375 158.5,30.0859 Q157.8594,30.2344 157.1563,30.2344 Q154.6563,30.2344 153.3359,28.5859 Q152.0156,26.9375 152.0156,23.8125 Q152.0156,20.6875 153.3359,19.0313 Q154.6563,17.375 157.1563,17.375 Q157.8594,17.375 158.5078,17.5313 Q159.1563,17.6875 159.7188,17.9844 L159.7188,20.7031 Q159.0938,20.125 158.5,19.8516 Q157.9063,19.5781 157.2813,19.5781 Q155.9375,19.5781 155.25,20.6484 Q154.5625,21.7188 154.5625,23.8125 Q154.5625,25.9063 155.25,26.9766 Q155.9375,28.0469 157.2813,28.0469 Q157.9063,28.0469 158.5,27.7734 Q159.0938,27.5 159.7188,26.9219 L159.7188,29.6406 Z "/><text fill="#000000" font-family="sans-serif" font-size="12" lengthAdjust="spacingAndGlyphs" textLength="67" x="170.75" y="28.1543">ATFTPlayer</text><line style="stroke: #A80036; stroke-width: 1.5;" x1="142.75" x2="239.75" y1="40" y2="40"/><rect fill="none" height="6" style="stroke: #C82930; stroke-width: 1.0;" width="6" x="149.75" y="48.9023"/><text fill="#000000" font-family="sans-serif" font-size="11" lengthAdjust="spacingAndGlyphs" textLength="35" x="161.75" y="54.2104">_theta</text><rect fill="none" height="6" style="stroke: #C82930; stroke-width: 1.0;" width="6" x="149.75" y="61.707"/><text fill="#000000" font-family="sans-serif" font-size="11" lengthAdjust="spacingAndGlyphs" textLength="37" x="161.75" y="67.0151">_world</text><line style="stroke: #A80036; stroke-width: 1.5;" x1="142.75" x2="239.75" y1="73.6094" y2="73.6094"/><rect fill="#FEFECE" filter="url(#f1)" height="48" style="stroke: #A80036; stroke-width: 1.5;" width="99" x="275.75" y="21"/><ellipse cx="290.75" cy="37" fill="#ADD1B2" rx="11" ry="11" style="stroke: #A80036; stroke-width: 1.0;"/><path d="M293.7188,42.6406 Q293.1406,42.9375 292.5,43.0859 Q291.8594,43.2344 291.1563,43.2344 Q288.6563,43.2344 287.3359,41.5859 Q286.0156,39.9375 286.0156,36.8125 Q286.0156,33.6875 287.3359,32.0313 Q288.6563,30.375 291.1563,30.375 Q291.8594,30.375 292.5078,30.5313 Q293.1563,30.6875 293.7188,30.9844 L293.7188,33.7031 Q293.0938,33.125 292.5,32.8516 Q291.9063,32.5781 291.2813,32.5781 Q289.9375,32.5781 289.25,33.6484 Q288.5625,34.7188 288.5625,36.8125 Q288.5625,38.9063 289.25,39.9766 Q289.9375,41.0469 291.2813,41.0469 Q291.9063,41.0469 292.5,40.7734 Q293.0938,40.5 293.7188,39.9219 L293.7188,42.6406 Z "/><text fill="#000000" font-family="sans-serif" font-size="12" lengthAdjust="spacingAndGlyphs" textLength="67" x="304.75" y="41.1543">STFTPlayer</text><line style="stroke: #A80036; stroke-width: 1.5;" x1="276.75" x2="373.75" y1="53" y2="53"/><line style="stroke: #A80036; stroke-width: 1.5;" x1="276.75" x2="373.75" y1="61" y2="61"/><rect fill="#FEFECE" filter="url(#f1)" height="48" style="stroke: #A80036; stroke-width: 1.5;" width="99" x="409.75" y="21"/><ellipse cx="424.75" cy="37" fill="#ADD1B2" rx="11" ry="11" style="stroke: #A80036; stroke-width: 1.0;"/><path d="M427.7188,42.6406 Q427.1406,42.9375 426.5,43.0859 Q425.8594,43.2344 425.1563,43.2344 Q422.6563,43.2344 421.3359,41.5859 Q420.0156,39.9375 420.0156,36.8125 Q420.0156,33.6875 421.3359,32.0313 Q422.6563,30.375 425.1563,30.375 Q425.8594,30.375 426.5078,30.5313 Q427.1563,30.6875 427.7188,30.9844 L427.7188,33.7031 Q427.0938,33.125 426.5,32.8516 Q425.9063,32.5781 425.2813,32.5781 Q423.9375,32.5781 423.25,33.6484 Q422.5625,34.7188 422.5625,36.8125 Q422.5625,38.9063 423.25,39.9766 Q423.9375,41.0469 425.2813,41.0469 Q425.9063,41.0469 426.5,40.7734 Q427.0938,40.5 427.7188,39.9219 L427.7188,42.6406 Z "/><text fill="#000000" font-family="sans-serif" font-size="12" lengthAdjust="spacingAndGlyphs" textLength="67" x="438.75" y="41.1543">RTFTPlayer</text><line style="stroke: #A80036; stroke-width: 1.5;" x1="410.75" x2="507.75" y1="53" y2="53"/><line style="stroke: #A80036; stroke-width: 1.5;" x1="410.75" x2="507.75" y1="61" y2="61"/><rect fill="#FEFECE" filter="url(#f1)" height="48" style="stroke: #A80036; stroke-width: 1.5;" width="92" x="764" y="155"/><ellipse cx="779" cy="171" fill="#ADD1B2" rx="11" ry="11" style="stroke: #A80036; stroke-width: 1.0;"/><path d="M781.9688,176.6406 Q781.3906,176.9375 780.75,177.0859 Q780.1094,177.2344 779.4063,177.2344 Q776.9063,177.2344 775.5859,175.5859 Q774.2656,173.9375 774.2656,170.8125 Q774.2656,167.6875 775.5859,166.0313 Q776.9063,164.375 779.4063,164.375 Q780.1094,164.375 780.7578,164.5313 Q781.4063,164.6875 781.9688,164.9844 L781.9688,167.7031 Q781.3438,167.125 780.75,166.8516 Q780.1563,166.5781 779.5313,166.5781 Q778.1875,166.5781 777.5,167.6484 Q776.8125,168.7188 776.8125,170.8125 Q776.8125,172.9063 777.5,173.9766 Q778.1875,175.0469 779.5313,175.0469 Q780.1563,175.0469 780.75,174.7734 Q781.3438,174.5 781.9688,173.9219 L781.9688,176.6406 Z "/><text fill="#000000" font-family="sans-serif" font-size="12" lengthAdjust="spacingAndGlyphs" textLength="60" x="793" y="175.1543">AllCPlayer</text><line style="stroke: #A80036; stroke-width: 1.5;" x1="765" x2="855" y1="187" y2="187"/><line style="stroke: #A80036; stroke-width: 1.5;" x1="765" x2="855" y1="195" y2="195"/><rect fill="#FEFECE" filter="url(#f1)" height="48" style="stroke: #A80036; stroke-width: 1.5;" width="93" x="891.75" y="155"/><ellipse cx="906.75" cy="171" fill="#ADD1B2" rx="11" ry="11" style="stroke: #A80036; stroke-width: 1.0;"/><path d="M909.7188,176.6406 Q909.1406,176.9375 908.5,177.0859 Q907.8594,177.2344 907.1563,177.2344 Q904.6563,177.2344 903.3359,175.5859 Q902.0156,173.9375 902.0156,170.8125 Q902.0156,167.6875 903.3359,166.0313 Q904.6563,164.375 907.1563,164.375 Q907.8594,164.375 908.5078,164.5313 Q909.1563,164.6875 909.7188,164.9844 L909.7188,167.7031 Q909.0938,167.125 908.5,166.8516 Q907.9063,166.5781 907.2813,166.5781 Q905.9375,166.5781 905.25,167.6484 Q904.5625,168.7188 904.5625,170.8125 Q904.5625,172.9063 905.25,173.9766 Q905.9375,175.0469 907.2813,175.0469 Q907.9063,175.0469 908.5,174.7734 Q909.0938,174.5 909.7188,173.9219 L909.7188,176.6406 Z "/><text fill="#000000" font-family="sans-serif" font-size="12" lengthAdjust="spacingAndGlyphs" textLength="61" x="920.75" y="175.1543">AllDPlayer</text><line style="stroke: #A80036; stroke-width: 1.5;" x1="892.75" x2="983.75" y1="187" y2="187"/><line style="stroke: #A80036; stroke-width: 1.5;" x1="892.75" x2="983.75" y1="195" y2="195"/><rect fill="#FEFECE" filter="url(#f1)" height="60.8047" style="stroke: #A80036; stroke-width: 1.5;" width="104" x="1320" y="288.5"/><ellipse cx="1335" cy="304.5" fill="#ADD1B2" rx="11" ry="11" style="stroke: #A80036; stroke-width: 1.0;"/><path d="M1337.9688,310.1406 Q1337.3906,310.4375 1336.75,310.5859 Q1336.1094,310.7344 1335.4063,310.7344 Q1332.9063,310.7344 1331.5859,309.0859 Q1330.2656,307.4375 1330.2656,304.3125 Q1330.2656,301.1875 1331.5859,299.5313 Q1332.9063,297.875 1335.4063,297.875 Q1336.1094,297.875 1336.7578,298.0313 Q1337.4063,298.1875 1337.9688,298.4844 L1337.9688,301.2031 Q1337.3438,300.625 1336.75,300.3516 Q1336.1563,300.0781 1335.5313,300.0781 Q1334.1875,300.0781 1333.5,301.1484 Q1332.8125,302.2188 1332.8125,304.3125 Q1332.8125,306.4063 1333.5,307.4766 Q1334.1875,308.5469 1335.5313,308.5469 Q1336.1563,308.5469 1336.75,308.2734 Q1337.3438,308 1337.9688,307.4219 L1337.9688,310.1406 Z "/><text fill="#000000" font-family="sans-serif" font-size="12" lengthAdjust="spacingAndGlyphs" textLength="72" x="1349" y="308.6543">RANDPlayer</text><line style="stroke: #A80036; stroke-width: 1.5;" x1="1321" x2="1423" y1="320.5" y2="320.5"/><rect fill="none" height="6" style="stroke: #C82930; stroke-width: 1.0;" width="6" x="1328" y="329.4023"/><text fill="#000000" font-family="sans-serif" font-size="11" lengthAdjust="spacingAndGlyphs" textLength="35" x="1340" y="334.7104">_theta</text><line style="stroke: #A80036; stroke-width: 1.5;" x1="1321" x2="1423" y1="341.3047" y2="341.3047"/><path d="M454.457,331.849 C577.678,358.659 878.072,424.0186 1018.86,454.6513 " fill="none" style="stroke: #A80036; stroke-width: 1.0;"/><polygon fill="none" points="1020.78,447.9052,1038.84,458.9974,1017.8,461.5852,1020.78,447.9052" style="stroke: #A80036; stroke-width: 1.0;"/><path d="M295.309,216.258 C311.533,232.025 330.813,250.762 348.38,267.834 " fill="none" style="stroke: #A80036; stroke-width: 1.0;"/><polygon fill="none" points="353.476,263.026,362.94,281.984,343.719,273.066,353.476,263.026" style="stroke: #A80036; stroke-width: 1.0;"/><path d="M400,203.098 C400,219.127 400,241.205 400,261.727 " fill="none" style="stroke: #A80036; stroke-width: 1.0;"/><polygon fill="none" points="407,261.838,400,281.838,393,261.838,407,261.838" style="stroke: #A80036; stroke-width: 1.0;"/><path d="M867.13,350.375 C911.414,373.921 973.091,406.714 1020.96,432.1656 " fill="none" style="stroke: #A80036; stroke-width: 1.0;"/><polygon fill="none" points="1024.52,426.1301,1038.89,441.7,1017.95,438.4915,1024.52,426.1301" style="stroke: #A80036; stroke-width: 1.0;"/><path d="M582.119,203.146 C590.376,207.442 598.942,211.874 607,216 C649.087,237.551 696.273,261.286 734.554,280.434 " fill="none" style="stroke: #A80036; stroke-width: 1.0;"/><polygon fill="none" points="737.807,274.234,752.569,289.435,731.549,286.758,737.807,274.234" style="stroke: #A80036; stroke-width: 1.0;"/><path d="M699.261,203.098 C714.614,219.028 735.723,240.931 755.397,261.344 " fill="none" style="stroke: #A80036; stroke-width: 1.0;"/><polygon fill="none" points="760.527,256.58,769.366,275.838,750.447,266.295,760.527,256.58" style="stroke: #A80036; stroke-width: 1.0;"/><path d="M1094,356.168 C1094,370.017 1094,386.315 1094,402.213 " fill="none" style="stroke: #A80036; stroke-width: 1.0;"/><polygon fill="none" points="1101,402.28,1094,422.28,1087,402.28,1101,402.28" style="stroke: #A80036; stroke-width: 1.0;"/><path d="M1207.14,349.833 C1191.72,366.351 1171.93,387.541 1153.23,407.568 " fill="none" style="stroke: #A80036; stroke-width: 1.0;"/><polygon fill="none" points="1158.33,412.369,1139.56,422.2092,1148.09,402.814,1158.33,412.369" style="stroke: #A80036; stroke-width: 1.0;"/><path d="M1222.22,203.098 C1202.37,220.89 1174.2,246.133 1149.32,268.429 " fill="none" style="stroke: #A80036; stroke-width: 1.0;"/><polygon fill="none" points="1153.92,273.704,1134.35,281.838,1144.58,263.278,1153.92,273.704" style="stroke: #A80036; stroke-width: 1.0;"/><path d="M1334.42,203.03 C1326.44,207.513 1318.02,212.044 1310,216 C1253.26,243.987 1232.24,245.384 1168.1,276.002 " fill="none" style="stroke: #A80036; stroke-width: 1.0;"/><polygon fill="none" points="1170.85,282.446,1149.81,284.95,1164.7,269.871,1170.85,282.446" style="stroke: #A80036; stroke-width: 1.0;"/><path d="M1094,216.258 C1094,230.203 1094,246.471 1094,261.855 " fill="none" style="stroke: #A80036; stroke-width: 1.0;"/><polygon fill="none" points="1101,261.984,1094,281.984,1087,261.984,1101,261.984" style="stroke: #A80036; stroke-width: 1.0;"/><path d="M313.176,69.295 C305.501,84.417 295.165,104.779 285.514,123.793 " fill="none" style="stroke: #A80036; stroke-width: 1.0;"/><polygon fill="none" points="291.693,127.085,276.399,141.751,279.209,120.749,291.693,127.085" style="stroke: #A80036; stroke-width: 1.0;"/><path d="M101.3327,75.623 C126.185,91.864 157.578,112.378 185.724,130.77 " fill="none" style="stroke: #A80036; stroke-width: 1.0;"/><polygon fill="none" points="189.829,125.091,202.742,141.891,182.171,136.81,189.829,125.091" style="stroke: #A80036; stroke-width: 1.0;"/><path d="M423.528,69.295 C397.758,86.219 361.992,109.707 330.297,130.521 " fill="none" style="stroke: #A80036; stroke-width: 1.0;"/><polygon fill="none" points="333.757,136.624,313.197,141.751,326.072,124.921,333.757,136.624" style="stroke: #A80036; stroke-width: 1.0;"/><path d="M209.308,82.07 C215.881,95.02 223.445,109.921 230.62,124.058 " fill="none" style="stroke: #A80036; stroke-width: 1.0;"/><polygon fill="none" points="236.904,120.972,239.714,141.974,224.42,127.308,236.904,120.972" style="stroke: #A80036; stroke-width: 1.0;"/><path d="M810,203.098 C810,217.559 810,236.941 810,255.664 " fill="none" style="stroke: #A80036; stroke-width: 1.0;"/><polygon fill="none" points="817,255.838,810,275.838,803,255.838,817,255.838" style="stroke: #A80036; stroke-width: 1.0;"/><path d="M916.576,203.098 C901.872,218.95 881.681,240.718 862.826,261.047 " fill="none" style="stroke: #A80036; stroke-width: 1.0;"/><polygon fill="none" points="867.84,265.935,849.107,275.838,857.575,256.414,867.84,265.935" style="stroke: #A80036; stroke-width: 1.0;"/><path d="M1323.64,349.512 C1316.42,353.77 1309.04,358.045 1302,362 C1257.71,386.866 1207.26,413.347 1167.14,433.9805 " fill="none" style="stroke: #A80036; stroke-width: 1.0;"/><polygon fill="none" points="1170.2,440.2786,1149.21,443.1682,1163.81,427.8187,1170.2,440.2786" style="stroke: #A80036; stroke-width: 1.0;"/></g></svg>