<?xml version="1.0" encoding="UTF-8" standalone="yes"?><svg xmlns="http://www.w3.org/2000/svg" xmlns:xlink="http://www.w3.org/1999/xlink" height="473px" style="width:246px;height:473px;" version="1.1" viewBox="0 0 246 473" width="246px"><defs><filter height="300%" id="f1" width="300%" x="-1" y="-1"><feGaussianBlur result="blurOut" stdDeviation="2.0"/><feColorMatrix in="blurOut" result="blurOut2" type="matrix" values="0 0 0 0 0 0 0 0 0 0 0 0 0 0 0 0 0 0 .4 0"/><feOffset dx="4.0" dy="4.0" in="blurOut2" result="blurOut3"/><feBlend in="SourceGraphic" in2="blurOut3" mode="normal"/></filter></defs><g><rect fill="#FEFECE" filter="url(#f1)" height="112.0234" style="stroke: #A80036; stroke-width: 1.5;" width="110" x="93.25" y="8"/><ellipse cx="117.25" cy="24" fill="#ADD1B2" rx="11" ry="11" style="stroke: #A80036; stroke-width: 1.0;"/><path d="M120.2188,29.6406 Q119.6406,29.9375 119,30.0859 Q118.3594,30.2344 117.6563,30.2344 Q115.1563,30.2344 113.8359,28.5859 Q112.5156,26.9375 112.5156,23.8125 Q112.5156,20.6875 113.8359,19.0313 Q115.1563,17.375 117.6563,17.375 Q118.3594,17.375 119.0078,17.5313 Q119.6563,17.6875 120.2188,17.9844 L120.2188,20.7031 Q119.5938,20.125 119,19.8516 Q118.4063,19.5781 117.7813,19.5781 Q116.4375,19.5781 115.75,20.6484 Q115.0625,21.7188 115.0625,23.8125 Q115.0625,25.9063 115.75,26.9766 Q116.4375,28.0469 117.7813,28.0469 Q118.4063,28.0469 119,27.7734 Q119.5938,27.5 120.2188,26.9219 L120.2188,29.6406 Z "/><text fill="#000000" font-family="sans-serif" font-size="12" lengthAdjust="spacingAndGlyphs" textLength="58" x="133.25" y="28.1543">IPDPlayer</text><line style="stroke: #A80036; stroke-width: 1.5;" x1="94.25" x2="202.25" y1="40" y2="40"/><ellipse cx="104.25" cy="51.9023" fill="none" rx="3" ry="3" style="stroke: #038048; stroke-width: 1.0;"/><text fill="#000000" font-family="sans-serif" font-size="11" lengthAdjust="spacingAndGlyphs" textLength="10" x="113.25" y="54.2104">id</text><rect fill="none" height="6" style="stroke: #C82930; stroke-width: 1.0;" width="6" x="101.25" y="61.707"/><text fill="#000000" font-family="sans-serif" font-size="11" lengthAdjust="spacingAndGlyphs" textLength="30" x="113.25" y="67.0151">_type</text><rect fill="none" height="6" style="stroke: #C82930; stroke-width: 1.0;" width="6" x="101.25" y="74.5117"/><text fill="#000000" font-family="sans-serif" font-size="11" lengthAdjust="spacingAndGlyphs" textLength="64" x="113.25" y="79.8198">_ingame_id</text><rect fill="none" height="6" style="stroke: #C82930; stroke-width: 1.0;" width="6" x="101.25" y="87.3164"/><text fill="#000000" font-family="sans-serif" font-size="11" lengthAdjust="spacingAndGlyphs" textLength="37" x="113.25" y="92.6245">_noise</text><line style="stroke: #A80036; stroke-width: 1.0;" x1="94.25" x2="202.25" y1="99.2188" y2="99.2188"/><ellipse cx="104.25" cy="111.1211" fill="#84BE84" rx="3" ry="3" style="stroke: #038048; stroke-width: 1.0;"/><text fill="#000000" font-family="sans-serif" font-size="11" lengthAdjust="spacingAndGlyphs" textLength="84" x="113.25" y="113.4292">act(game, iter)</text><rect fill="#FEFECE" filter="url(#f1)" height="137.6328" style="stroke: #A80036; stroke-width: 1.5;" width="155" x="6" y="180"/><ellipse cx="51.25" cy="196" fill="#ADD1B2" rx="11" ry="11" style="stroke: #A80036; stroke-width: 1.0;"/><path d="M54.2188,201.6406 Q53.6406,201.9375 53,202.0859 Q52.3594,202.2344 51.6563,202.2344 Q49.1563,202.2344 47.8359,200.5859 Q46.5156,198.9375 46.5156,195.8125 Q46.5156,192.6875 47.8359,191.0313 Q49.1563,189.375 51.6563,189.375 Q52.3594,189.375 53.0078,189.5313 Q53.6563,189.6875 54.2188,189.9844 L54.2188,192.7031 Q53.5938,192.125 53,191.8516 Q52.4063,191.5781 51.7813,191.5781 Q50.4375,191.5781 49.75,192.6484 Q49.0625,193.7188 49.0625,195.8125 Q49.0625,197.9063 49.75,198.9766 Q50.4375,200.0469 51.7813,200.0469 Q52.4063,200.0469 53,199.7734 Q53.5938,199.5 54.2188,198.9219 L54.2188,201.6406 Z "/><text fill="#000000" font-family="sans-serif" font-size="12" lengthAdjust="spacingAndGlyphs" textLength="56" x="71.75" y="200.1543">IPDGame</text><line style="stroke: #A80036; stroke-width: 1.5;" x1="7" x2="160" y1="212" y2="212"/><rect fill="none" height="6" style="stroke: #C82930; stroke-width: 1.0;" width="6" x="14" y="220.9023"/><text fill="#000000" font-family="sans-serif" font-size="11" lengthAdjust="spacingAndGlyphs" textLength="48" x="26" y="226.2104">_payoffs</text><rect fill="none" height="6" style="stroke: #C82930; stroke-width: 1.0;" width="6" x="14" y="233.707"/><text fill="#000000" font-family="sans-serif" font-size="11" lengthAdjust="spacingAndGlyphs" textLength="48" x="26" y="239.0151">_players</text><ellipse cx="17" cy="249.5117" fill="none" rx="3" ry="3" style="stroke: #038048; stroke-width: 1.0;"/><text fill="#000000" font-family="sans-serif" font-size="11" lengthAdjust="spacingAndGlyphs" textLength="41" x="26" y="251.8198">actions</text><ellipse cx="17" cy="262.3164" fill="none" rx="3" ry="3" style="stroke: #038048; stroke-width: 1.0;"/><text fill="#000000" font-family="sans-serif" font-size="11" lengthAdjust="spacingAndGlyphs" textLength="47" x="26" y="264.6245">rewards</text><line style="stroke: #A80036; stroke-width: 1.0;" x1="7" x2="160" y1="271.2188" y2="271.2188"/><ellipse cx="17" cy="283.1211" fill="#84BE84" rx="3" ry="3" style="stroke: #038048; stroke-width: 1.0;"/><text fill="#000000" font-family="sans-serif" font-size="11" lengthAdjust="spacingAndGlyphs" textLength="50" x="26" y="285.4292">payoffs()</text><ellipse cx="17" cy="295.9258" fill="#84BE84" rx="3" ry="3" style="stroke: #038048; stroke-width: 1.0;"/><text fill="#000000" font-family="sans-serif" font-size="11" lengthAdjust="spacingAndGlyphs" textLength="129" x="26" y="298.2339">get_actions(start, end)</text><ellipse cx="17" cy="308.7305" fill="#84BE84" rx="3" ry="3" style="stroke: #038048; stroke-width: 1.0;"/><text fill="#000000" font-family="sans-serif" font-size="11" lengthAdjust="spacingAndGlyphs" textLength="83" x="26" y="311.0386">simulate(iters)</text><rect fill="#FEFECE" filter="url(#f1)" height="86.4141" style="stroke: #A80036; stroke-width: 1.5;" width="178" x="59.75" y="378"/><ellipse cx="74.75" cy="394" fill="#ADD1B2" rx="11" ry="11" style="stroke: #A80036; stroke-width: 1.0;"/><path d="M77.7188,399.6406 Q77.1406,399.9375 76.5,400.0859 Q75.8594,400.2344 75.1563,400.2344 Q72.6563,400.2344 71.3359,398.5859 Q70.0156,396.9375 70.0156,393.8125 Q70.0156,390.6875 71.3359,389.0313 Q72.6563,387.375 75.1563,387.375 Q75.8594,387.375 76.5078,387.5313 Q77.1563,387.6875 77.7188,387.9844 L77.7188,390.7031 Q77.0938,390.125 76.5,389.8516 Q75.9063,389.5781 75.2813,389.5781 Q73.9375,389.5781 73.25,390.6484 Q72.5625,391.7188 72.5625,393.8125 Q72.5625,395.9063 73.25,396.9766 Q73.9375,398.0469 75.2813,398.0469 Q75.9063,398.0469 76.5,397.7734 Q77.0938,397.5 77.7188,396.9219 L77.7188,399.6406 Z "/><text fill="#000000" font-family="sans-serif" font-size="12" lengthAdjust="spacingAndGlyphs" textLength="146" x="88.75" y="398.1543">IPDPairwiseCompetition</text><line style="stroke: #A80036; stroke-width: 1.5;" x1="60.75" x2="236.75" y1="410" y2="410"/><rect fill="none" height="6" style="stroke: #C82930; stroke-width: 1.0;" width="6" x="67.75" y="418.9023"/><text fill="#000000" font-family="sans-serif" font-size="11" lengthAdjust="spacingAndGlyphs" textLength="48" x="79.75" y="424.2104">_payoffs</text><rect fill="none" height="6" style="stroke: #C82930; stroke-width: 1.0;" width="6" x="67.75" y="431.707"/><text fill="#000000" font-family="sans-serif" font-size="11" lengthAdjust="spacingAndGlyphs" textLength="48" x="79.75" y="437.0151">_players</text><line style="stroke: #A80036; stroke-width: 1.0;" x1="60.75" x2="236.75" y1="443.6094" y2="443.6094"/><ellipse cx="70.75" cy="455.5117" fill="#84BE84" rx="3" ry="3" style="stroke: #038048; stroke-width: 1.0;"/><text fill="#000000" font-family="sans-serif" font-size="11" lengthAdjust="spacingAndGlyphs" textLength="83" x="79.75" y="457.8198">simulate(iters)</text><path d="M124.099,132.995 C118.663,148.298 112.894,164.542 107.456,179.851 " fill="none" style="stroke: #A80036; stroke-width: 1.0;"/><polygon fill="#A80036" points="128.571,120.403,122.7934,124.718,124.5543,131.7108,130.3319,127.3958,128.571,120.403" style="stroke: #A80036; stroke-width: 1.0;"/><text fill="#000000" font-family="sans-serif" font-size="13" lengthAdjust="spacingAndGlyphs" textLength="8" x="116.5632" y="140.2647">2</text><text fill="#000000" font-family="sans-serif" font-size="13" lengthAdjust="spacingAndGlyphs" textLength="23" x="84.4761" y="169.0245">1..*</text><path d="M109.313,318.166 C117.013,338.303 125.215,359.754 132.095,377.7489 " fill="none" style="stroke: #A80036; stroke-width: 1.0;"/><text fill="#000000" font-family="sans-serif" font-size="13" lengthAdjust="spacingAndGlyphs" textLength="23" x="86.624" y="337.8043">1..*</text><text fill="#000000" font-family="sans-serif" font-size="13" lengthAdjust="spacingAndGlyphs" textLength="8" x="120.1851" y="366.843">1</text><path d="M163.569,377.923 C169.41,359.755 175.356,338.097 178.25,318 C186.992,257.293 186.054,240.835 178.25,180 C176.26,164.491 172.82,148.086 168.962,132.676 " fill="none" style="stroke: #A80036; stroke-width: 1.0;"/><polygon fill="#A80036" points="165.645,120.006,163.2953,126.8235,168.6846,131.6146,171.0344,124.7971,165.645,120.006" style="stroke: #A80036; stroke-width: 1.0;"/><text fill="#000000" font-family="sans-serif" font-size="13" lengthAdjust="spacingAndGlyphs" textLength="23" x="139.8806" y="367.0403">1..*</text><text fill="#000000" font-family="sans-serif" font-size="13" lengthAdjust="spacingAndGlyphs" textLength="23" x="142.2722" y="140.2166">2..*</text></g></svg>