<?xml version="1.0" encoding="UTF-8" standalone="yes"?><svg xmlns="http://www.w3.org/2000/svg" xmlns:xlink="http://www.w3.org/1999/xlink" height="461px" style="width:759px;height:461px;" version="1.1" viewBox="0 0 759 461" width="759px"><defs><filter height="300%" id="f1" width="300%" x="-1" y="-1"><feGaussianBlur result="blurOut" stdDeviation="2.0"/><feColorMatrix in="blurOut" result="blurOut2" type="matrix" values="0 0 0 0 0 0 0 0 0 0 0 0 0 0 0 0 0 0 .4 0"/><feOffset dx="4.0" dy="4.0" in="blurOut2" result="blurOut3"/><feBlend in="SourceGraphic" in2="blurOut3" mode="normal"/></filter></defs><g><rect fill="#FEFECE" filter="url(#f1)" height="99.2188" style="stroke: #A80036; stroke-width: 1.5;" width="110" x="640" y="110.5"/><ellipse cx="664" cy="126.5" fill="#ADD1B2" rx="11" ry="11" style="stroke: #A80036; stroke-width: 1.0;"/><path d="M666.9688,132.1406 Q666.3906,132.4375 665.75,132.5859 Q665.1094,132.7344 664.4063,132.7344 Q661.9063,132.7344 660.5859,131.0859 Q659.2656,129.4375 659.2656,126.3125 Q659.2656,123.1875 660.5859,121.5313 Q661.9063,119.875 664.4063,119.875 Q665.1094,119.875 665.7578,120.0313 Q666.4063,120.1875 666.9688,120.4844 L666.9688,123.2031 Q666.3438,122.625 665.75,122.3516 Q665.1563,122.0781 664.5313,122.0781 Q663.1875,122.0781 662.5,123.1484 Q661.8125,124.2188 661.8125,126.3125 Q661.8125,128.4063 662.5,129.4766 Q663.1875,130.5469 664.5313,130.5469 Q665.1563,130.5469 665.75,130.2734 Q666.3438,130 666.9688,129.4219 L666.9688,132.1406 Z "/><text fill="#000000" font-family="sans-serif" font-size="12" lengthAdjust="spacingAndGlyphs" textLength="58" x="680" y="130.6543">IPDPlayer</text><line style="stroke: #A80036; stroke-width: 1.5;" x1="641" x2="749" y1="142.5" y2="142.5"/><ellipse cx="651" cy="154.4023" fill="none" rx="3" ry="3" style="stroke: #038048; stroke-width: 1.0;"/><text fill="#000000" font-family="sans-serif" font-size="11" lengthAdjust="spacingAndGlyphs" textLength="10" x="660" y="156.7104">id</text><rect fill="none" height="6" style="stroke: #C82930; stroke-width: 1.0;" width="6" x="648" y="164.207"/><text fill="#000000" font-family="sans-serif" font-size="11" lengthAdjust="spacingAndGlyphs" textLength="30" x="660" y="169.5151">_type</text><rect fill="none" height="6" style="stroke: #C82930; stroke-width: 1.0;" width="6" x="648" y="177.0117"/><text fill="#000000" font-family="sans-serif" font-size="11" lengthAdjust="spacingAndGlyphs" textLength="64" x="660" y="182.3198">_ingame_id</text><line style="stroke: #A80036; stroke-width: 1.0;" x1="641" x2="749" y1="188.9141" y2="188.9141"/><ellipse cx="651" cy="200.8164" fill="#84BE84" rx="3" ry="3" style="stroke: #038048; stroke-width: 1.0;"/><text fill="#000000" font-family="sans-serif" font-size="11" lengthAdjust="spacingAndGlyphs" textLength="84" x="660" y="203.1245">act(game, iter)</text><rect fill="#FEFECE" filter="url(#f1)" height="137.6328" style="stroke: #A80036; stroke-width: 1.5;" width="155" x="317.75" y="315"/><ellipse cx="363" cy="331" fill="#ADD1B2" rx="11" ry="11" style="stroke: #A80036; stroke-width: 1.0;"/><path d="M365.9688,336.6406 Q365.3906,336.9375 364.75,337.0859 Q364.1094,337.2344 363.4063,337.2344 Q360.9063,337.2344 359.5859,335.5859 Q358.2656,333.9375 358.2656,330.8125 Q358.2656,327.6875 359.5859,326.0313 Q360.9063,324.375 363.4063,324.375 Q364.1094,324.375 364.7578,324.5313 Q365.4063,324.6875 365.9688,324.9844 L365.9688,327.7031 Q365.3438,327.125 364.75,326.8516 Q364.1563,326.5781 363.5313,326.5781 Q362.1875,326.5781 361.5,327.6484 Q360.8125,328.7188 360.8125,330.8125 Q360.8125,332.9063 361.5,333.9766 Q362.1875,335.0469 363.5313,335.0469 Q364.1563,335.0469 364.75,334.7734 Q365.3438,334.5 365.9688,333.9219 L365.9688,336.6406 Z "/><text fill="#000000" font-family="sans-serif" font-size="12" lengthAdjust="spacingAndGlyphs" textLength="56" x="383.5" y="335.1543">IPDGame</text><line style="stroke: #A80036; stroke-width: 1.5;" x1="318.75" x2="471.75" y1="347" y2="347"/><rect fill="none" height="6" style="stroke: #C82930; stroke-width: 1.0;" width="6" x="325.75" y="355.9023"/><text fill="#000000" font-family="sans-serif" font-size="11" lengthAdjust="spacingAndGlyphs" textLength="48" x="337.75" y="361.2104">_payoffs</text><rect fill="none" height="6" style="stroke: #C82930; stroke-width: 1.0;" width="6" x="325.75" y="368.707"/><text fill="#000000" font-family="sans-serif" font-size="11" lengthAdjust="spacingAndGlyphs" textLength="48" x="337.75" y="374.0151">_players</text><ellipse cx="328.75" cy="384.5117" fill="none" rx="3" ry="3" style="stroke: #038048; stroke-width: 1.0;"/><text fill="#000000" font-family="sans-serif" font-size="11" lengthAdjust="spacingAndGlyphs" textLength="41" x="337.75" y="386.8198">actions</text><ellipse cx="328.75" cy="397.3164" fill="none" rx="3" ry="3" style="stroke: #038048; stroke-width: 1.0;"/><text fill="#000000" font-family="sans-serif" font-size="11" lengthAdjust="spacingAndGlyphs" textLength="47" x="337.75" y="399.6245">rewards</text><line style="stroke: #A80036; stroke-width: 1.0;" x1="318.75" x2="471.75" y1="406.2188" y2="406.2188"/><ellipse cx="328.75" cy="418.1211" fill="#84BE84" rx="3" ry="3" style="stroke: #038048; stroke-width: 1.0;"/><text fill="#000000" font-family="sans-serif" font-size="11" lengthAdjust="spacingAndGlyphs" textLength="50" x="337.75" y="420.4292">payoffs()</text><ellipse cx="328.75" cy="430.9258" fill="#84BE84" rx="3" ry="3" style="stroke: #038048; stroke-width: 1.0;"/><text fill="#000000" font-family="sans-serif" font-size="11" lengthAdjust="spacingAndGlyphs" textLength="129" x="337.75" y="433.2339">get_actions(start, end)</text><ellipse cx="328.75" cy="443.7305" fill="#84BE84" rx="3" ry="3" style="stroke: #038048; stroke-width: 1.0;"/><text fill="#000000" font-family="sans-serif" font-size="11" lengthAdjust="spacingAndGlyphs" textLength="83" x="337.75" y="446.0386">simulate(iters)</text><rect fill="#FEFECE" filter="url(#f1)" height="86.4141" style="stroke: #A80036; stroke-width: 1.5;" width="178" x="6.5" y="117"/><ellipse cx="21.5" cy="133" fill="#ADD1B2" rx="11" ry="11" style="stroke: #A80036; stroke-width: 1.0;"/><path d="M24.4688,138.6406 Q23.8906,138.9375 23.25,139.0859 Q22.6094,139.2344 21.9063,139.2344 Q19.4063,139.2344 18.0859,137.5859 Q16.7656,135.9375 16.7656,132.8125 Q16.7656,129.6875 18.0859,128.0313 Q19.4063,126.375 21.9063,126.375 Q22.6094,126.375 23.2578,126.5313 Q23.9063,126.6875 24.4688,126.9844 L24.4688,129.7031 Q23.8438,129.125 23.25,128.8516 Q22.6563,128.5781 22.0313,128.5781 Q20.6875,128.5781 20,129.6484 Q19.3125,130.7188 19.3125,132.8125 Q19.3125,134.9063 20,135.9766 Q20.6875,137.0469 22.0313,137.0469 Q22.6563,137.0469 23.25,136.7734 Q23.8438,136.5 24.4688,135.9219 L24.4688,138.6406 Z "/><text fill="#000000" font-family="sans-serif" font-size="12" lengthAdjust="spacingAndGlyphs" textLength="146" x="35.5" y="137.1543">IPDPairwiseCompetition</text><line style="stroke: #A80036; stroke-width: 1.5;" x1="7.5" x2="183.5" y1="149" y2="149"/><rect fill="none" height="6" style="stroke: #C82930; stroke-width: 1.0;" width="6" x="14.5" y="157.9023"/><text fill="#000000" font-family="sans-serif" font-size="11" lengthAdjust="spacingAndGlyphs" textLength="48" x="26.5" y="163.2104">_payoffs</text><rect fill="none" height="6" style="stroke: #C82930; stroke-width: 1.0;" width="6" x="14.5" y="170.707"/><text fill="#000000" font-family="sans-serif" font-size="11" lengthAdjust="spacingAndGlyphs" textLength="48" x="26.5" y="176.0151">_players</text><line style="stroke: #A80036; stroke-width: 1.0;" x1="7.5" x2="183.5" y1="182.6094" y2="182.6094"/><ellipse cx="17.5" cy="194.5117" fill="#84BE84" rx="3" ry="3" style="stroke: #038048; stroke-width: 1.0;"/><text fill="#000000" font-family="sans-serif" font-size="11" lengthAdjust="spacingAndGlyphs" textLength="83" x="26.5" y="196.8198">simulate(iters)</text><rect fill="#FEFECE" filter="url(#f1)" height="188.8516" style="stroke: #A80036; stroke-width: 1.5;" width="385" x="219.75" y="65.5"/><ellipse cx="327.5" cy="81.5" fill="#ADD1B2" rx="11" ry="11" style="stroke: #A80036; stroke-width: 1.0;"/><path d="M330.4688,87.1406 Q329.8906,87.4375 329.25,87.5859 Q328.6094,87.7344 327.9063,87.7344 Q325.4063,87.7344 324.0859,86.0859 Q322.7656,84.4375 322.7656,81.3125 Q322.7656,78.1875 324.0859,76.5313 Q325.4063,74.875 327.9063,74.875 Q328.6094,74.875 329.2578,75.0313 Q329.9063,75.1875 330.4688,75.4844 L330.4688,78.2031 Q329.8438,77.625 329.25,77.3516 Q328.6563,77.0781 328.0313,77.0781 Q326.6875,77.0781 326,78.1484 Q325.3125,79.2188 325.3125,81.3125 Q325.3125,83.4063 326,84.4766 Q326.6875,85.5469 328.0313,85.5469 Q328.6563,85.5469 329.25,85.2734 Q329.8438,85 330.4688,84.4219 L330.4688,87.1406 Z "/><text fill="#000000" font-family="sans-serif" font-size="12" lengthAdjust="spacingAndGlyphs" textLength="161" x="348" y="85.6543">IPDEvolutionarySimulation</text><line style="stroke: #A80036; stroke-width: 1.5;" x1="220.75" x2="603.75" y1="97.5" y2="97.5"/><rect fill="none" height="6" style="stroke: #C82930; stroke-width: 1.0;" width="6" x="227.75" y="106.4023"/><text fill="#000000" font-family="sans-serif" font-size="11" lengthAdjust="spacingAndGlyphs" textLength="78" x="239.75" y="111.7104">_player_types</text><rect fill="none" height="6" style="stroke: #C82930; stroke-width: 1.0;" width="6" x="227.75" y="119.207"/><text fill="#000000" font-family="sans-serif" font-size="11" lengthAdjust="spacingAndGlyphs" textLength="48" x="239.75" y="124.5151">_payoffs</text><rect fill="none" height="6" style="stroke: #C82930; stroke-width: 1.0;" width="6" x="227.75" y="132.0117"/><text fill="#000000" font-family="sans-serif" font-size="11" lengthAdjust="spacingAndGlyphs" textLength="65" x="239.75" y="137.3198">_population</text><rect fill="none" height="6" style="stroke: #C82930; stroke-width: 1.0;" width="6" x="227.75" y="144.8164"/><text fill="#000000" font-family="sans-serif" font-size="11" lengthAdjust="spacingAndGlyphs" textLength="87" x="239.75" y="150.1245">_n_generations</text><rect fill="none" height="6" style="stroke: #C82930; stroke-width: 1.0;" width="6" x="227.75" y="157.6211"/><text fill="#000000" font-family="sans-serif" font-size="11" lengthAdjust="spacingAndGlyphs" textLength="45" x="239.75" y="162.9292">_n_iters</text><rect fill="none" height="6" style="stroke: #C82930; stroke-width: 1.0;" width="6" x="227.75" y="170.4258"/><text fill="#000000" font-family="sans-serif" font-size="11" lengthAdjust="spacingAndGlyphs" textLength="37" x="239.75" y="175.7339">_noise</text><rect fill="none" height="6" style="stroke: #C82930; stroke-width: 1.0;" width="6" x="227.75" y="183.2305"/><text fill="#000000" font-family="sans-serif" font-size="11" lengthAdjust="spacingAndGlyphs" textLength="52" x="239.75" y="188.5386">_average</text><line style="stroke: #A80036; stroke-width: 1.0;" x1="220.75" x2="603.75" y1="195.1328" y2="195.1328"/><ellipse cx="230.75" cy="207.0352" fill="#84BE84" rx="3" ry="3" style="stroke: #038048; stroke-width: 1.0;"/><text fill="#000000" font-family="sans-serif" font-size="11" lengthAdjust="spacingAndGlyphs" text-decoration="underline" textLength="338" x="239.75" y="209.3433">create_fixed_generation(player_types, population_per_type)</text><line style="stroke: #000000; stroke-width: 1.0;" x1="239.75" x2="577.75" y1="211.3433" y2="211.3433"/><ellipse cx="230.75" cy="219.8398" fill="#84BE84" rx="3" ry="3" style="stroke: #038048; stroke-width: 1.0;"/><text fill="#000000" font-family="sans-serif" font-size="11" lengthAdjust="spacingAndGlyphs" text-decoration="underline" textLength="359" x="239.75" y="222.1479">create_generation(player_types, player_likelihoods, population)</text><line style="stroke: #000000; stroke-width: 1.0;" x1="239.75" x2="598.75" y1="224.1479" y2="224.1479"/><ellipse cx="230.75" cy="232.6445" fill="#84BE84" rx="3" ry="3" style="stroke: #038048; stroke-width: 1.0;"/><text fill="#000000" font-family="sans-serif" font-size="11" lengthAdjust="spacingAndGlyphs" text-decoration="underline" textLength="128" x="239.75" y="234.9526">plot_simulation(frame)</text><line style="stroke: #000000; stroke-width: 1.0;" x1="239.75" x2="367.75" y1="236.9526" y2="236.9526"/><ellipse cx="230.75" cy="245.4492" fill="#84BE84" rx="3" ry="3" style="stroke: #038048; stroke-width: 1.0;"/><text fill="#000000" font-family="sans-serif" font-size="11" lengthAdjust="spacingAndGlyphs" textLength="287" x="239.75" y="247.7573">simulate(first_generation, n_generations, printing)</text><path d="M655.028,219.956 C645.088,232.36 633.855,244.77 622,255 C577.129,293.721 518.739,326.331 472.416,348.945 " fill="none" style="stroke: #A80036; stroke-width: 1.0;"/><polygon fill="#A80036" points="663.06,209.587,656.2235,211.8811,655.7117,219.074,662.5482,216.7799,663.06,209.587" style="stroke: #A80036; stroke-width: 1.0;"/><text fill="#000000" font-family="sans-serif" font-size="13" lengthAdjust="spacingAndGlyphs" textLength="8" x="648.8653" y="229.6757">2</text><text fill="#000000" font-family="sans-serif" font-size="13" lengthAdjust="spacingAndGlyphs" textLength="23" x="480.867" y="340.8844">1..*</text><path d="M317.734,335.157 C281.766,312.034 238.878,283.222 202,255 C180.989,238.921 158.849,219.861 140.195,203.122 " fill="none" style="stroke: #A80036; stroke-width: 1.0;"/><text fill="#000000" font-family="sans-serif" font-size="13" lengthAdjust="spacingAndGlyphs" textLength="23" x="286.8422" y="326.8527">1..*</text><text fill="#000000" font-family="sans-serif" font-size="13" lengthAdjust="spacingAndGlyphs" textLength="8" x="137.7695" y="223.5499">1</text><path d="M123.891,116.707 C146.139,87.548 179.758,51.508 219.5,35 C298.51,2.18 528.302,-3.905 604.5,35 C631.279,48.673 651.972,74.38 666.767,98.943 " fill="none" style="stroke: #A80036; stroke-width: 1.0;"/><polygon fill="#A80036" points="673.354,110.475,673.8514,103.2811,667.4022,100.055,666.9048,107.249,673.354,110.475" style="stroke: #A80036; stroke-width: 1.0;"/><text fill="#000000" font-family="sans-serif" font-size="13" lengthAdjust="spacingAndGlyphs" textLength="23" x="102.0268" y="105.7953">1..*</text><text fill="#000000" font-family="sans-serif" font-size="13" lengthAdjust="spacingAndGlyphs" textLength="23" x="645.1925" y="99.4649">2..*</text><path d="M183.537,160 C195.585,160 207.633,160 219.681,160 " fill="none" style="stroke: #A80036; stroke-width: 1.0;"/><text fill="#000000" font-family="sans-serif" font-size="13" lengthAdjust="spacingAndGlyphs" textLength="23" x="188.821" y="155.1404">1..*</text><text fill="#000000" font-family="sans-serif" font-size="13" lengthAdjust="spacingAndGlyphs" textLength="23" x="188.9522" y="172.3176">2..*</text><path d="M604.352,160 C616.155,160 627.958,160 639.761,160 " fill="none" style="stroke: #A80036; stroke-width: 1.0;"/><text fill="#000000" font-family="sans-serif" font-size="13" lengthAdjust="spacingAndGlyphs" textLength="23" x="612.9415" y="155.7142">1..*</text><text fill="#000000" font-family="sans-serif" font-size="13" lengthAdjust="spacingAndGlyphs" textLength="23" x="612.6738" y="172.9449">1..*</text></g></svg>