<?xml version="1.0" encoding="UTF-8" standalone="yes"?><svg xmlns="http://www.w3.org/2000/svg" xmlns:xlink="http://www.w3.org/1999/xlink" height="461px" style="width:246px;height:461px;" version="1.1" viewBox="0 0 246 461" width="246px"><defs><filter height="300%" id="f1" width="300%" x="-1" y="-1"><feGaussianBlur result="blurOut" stdDeviation="2.0"/><feColorMatrix in="blurOut" result="blurOut2" type="matrix" values="0 0 0 0 0 0 0 0 0 0 0 0 0 0 0 0 0 0 .4 0"/><feOffset dx="4.0" dy="4.0" in="blurOut2" result="blurOut3"/><feBlend in="SourceGraphic" in2="blurOut3" mode="normal"/></filter></defs><g><rect fill="#FEFECE" filter="url(#f1)" height="99.2188" style="stroke: #A80036; stroke-width: 1.5;" width="110" x="93.25" y="8.5"/><ellipse cx="117.25" cy="24.5" fill="#ADD1B2" rx="11" ry="11" style="stroke: #A80036; stroke-width: 1.0;"/><path d="M120.2188,30.1406 Q119.6406,30.4375 119,30.5859 Q118.3594,30.7344 117.6563,30.7344 Q115.1563,30.7344 113.8359,29.0859 Q112.5156,27.4375 112.5156,24.3125 Q112.5156,21.1875 113.8359,19.5313 Q115.1563,17.875 117.6563,17.875 Q118.3594,17.875 119.0078,18.0313 Q119.6563,18.1875 120.2188,18.4844 L120.2188,21.2031 Q119.5938,20.625 119,20.3516 Q118.4063,20.0781 117.7813,20.0781 Q116.4375,20.0781 115.75,21.1484 Q115.0625,22.2188 115.0625,24.3125 Q115.0625,26.4063 115.75,27.4766 Q116.4375,28.5469 117.7813,28.5469 Q118.4063,28.5469 119,28.2734 Q119.5938,28 120.2188,27.4219 L120.2188,30.1406 Z "/><text fill="#000000" font-family="sans-serif" font-size="12" lengthAdjust="spacingAndGlyphs" textLength="58" x="133.25" y="28.6543">IPDPlayer</text><line style="stroke: #A80036; stroke-width: 1.5;" x1="94.25" x2="202.25" y1="40.5" y2="40.5"/><ellipse cx="104.25" cy="52.4023" fill="none" rx="3" ry="3" style="stroke: #038048; stroke-width: 1.0;"/><text fill="#000000" font-family="sans-serif" font-size="11" lengthAdjust="spacingAndGlyphs" textLength="10" x="113.25" y="54.7104">id</text><rect fill="none" height="6" style="stroke: #C82930; stroke-width: 1.0;" width="6" x="101.25" y="62.207"/><text fill="#000000" font-family="sans-serif" font-size="11" lengthAdjust="spacingAndGlyphs" textLength="30" x="113.25" y="67.5151">_type</text><rect fill="none" height="6" style="stroke: #C82930; stroke-width: 1.0;" width="6" x="101.25" y="75.0117"/><text fill="#000000" font-family="sans-serif" font-size="11" lengthAdjust="spacingAndGlyphs" textLength="64" x="113.25" y="80.3198">_ingame_id</text><line style="stroke: #A80036; stroke-width: 1.0;" x1="94.25" x2="202.25" y1="86.9141" y2="86.9141"/><ellipse cx="104.25" cy="98.8164" fill="#84BE84" rx="3" ry="3" style="stroke: #038048; stroke-width: 1.0;"/><text fill="#000000" font-family="sans-serif" font-size="11" lengthAdjust="spacingAndGlyphs" textLength="84" x="113.25" y="101.1245">act(game, iter)</text><rect fill="#FEFECE" filter="url(#f1)" height="137.6328" style="stroke: #A80036; stroke-width: 1.5;" width="155" x="6" y="168"/><ellipse cx="51.25" cy="184" fill="#ADD1B2" rx="11" ry="11" style="stroke: #A80036; stroke-width: 1.0;"/><path d="M54.2188,189.6406 Q53.6406,189.9375 53,190.0859 Q52.3594,190.2344 51.6563,190.2344 Q49.1563,190.2344 47.8359,188.5859 Q46.5156,186.9375 46.5156,183.8125 Q46.5156,180.6875 47.8359,179.0313 Q49.1563,177.375 51.6563,177.375 Q52.3594,177.375 53.0078,177.5313 Q53.6563,177.6875 54.2188,177.9844 L54.2188,180.7031 Q53.5938,180.125 53,179.8516 Q52.4063,179.5781 51.7813,179.5781 Q50.4375,179.5781 49.75,180.6484 Q49.0625,181.7188 49.0625,183.8125 Q49.0625,185.9063 49.75,186.9766 Q50.4375,188.0469 51.7813,188.0469 Q52.4063,188.0469 53,187.7734 Q53.5938,187.5 54.2188,186.9219 L54.2188,189.6406 Z "/><text fill="#000000" font-family="sans-serif" font-size="12" lengthAdjust="spacingAndGlyphs" textLength="56" x="71.75" y="188.1543">IPDGame</text><line style="stroke: #A80036; stroke-width: 1.5;" x1="7" x2="160" y1="200" y2="200"/><rect fill="none" height="6" style="stroke: #C82930; stroke-width: 1.0;" width="6" x="14" y="208.9023"/><text fill="#000000" font-family="sans-serif" font-size="11" lengthAdjust="spacingAndGlyphs" textLength="48" x="26" y="214.2104">_payoffs</text><rect fill="none" height="6" style="stroke: #C82930; stroke-width: 1.0;" width="6" x="14" y="221.707"/><text fill="#000000" font-family="sans-serif" font-size="11" lengthAdjust="spacingAndGlyphs" textLength="48" x="26" y="227.0151">_players</text><ellipse cx="17" cy="237.5117" fill="none" rx="3" ry="3" style="stroke: #038048; stroke-width: 1.0;"/><text fill="#000000" font-family="sans-serif" font-size="11" lengthAdjust="spacingAndGlyphs" textLength="41" x="26" y="239.8198">actions</text><ellipse cx="17" cy="250.3164" fill="none" rx="3" ry="3" style="stroke: #038048; stroke-width: 1.0;"/><text fill="#000000" font-family="sans-serif" font-size="11" lengthAdjust="spacingAndGlyphs" textLength="47" x="26" y="252.6245">rewards</text><line style="stroke: #A80036; stroke-width: 1.0;" x1="7" x2="160" y1="259.2188" y2="259.2188"/><ellipse cx="17" cy="271.1211" fill="#84BE84" rx="3" ry="3" style="stroke: #038048; stroke-width: 1.0;"/><text fill="#000000" font-family="sans-serif" font-size="11" lengthAdjust="spacingAndGlyphs" textLength="50" x="26" y="273.4292">payoffs()</text><ellipse cx="17" cy="283.9258" fill="#84BE84" rx="3" ry="3" style="stroke: #038048; stroke-width: 1.0;"/><text fill="#000000" font-family="sans-serif" font-size="11" lengthAdjust="spacingAndGlyphs" textLength="129" x="26" y="286.2339">get_actions(start, end)</text><ellipse cx="17" cy="296.7305" fill="#84BE84" rx="3" ry="3" style="stroke: #038048; stroke-width: 1.0;"/><text fill="#000000" font-family="sans-serif" font-size="11" lengthAdjust="spacingAndGlyphs" textLength="83" x="26" y="299.0386">simulate(iters)</text><rect fill="#FEFECE" filter="url(#f1)" height="86.4141" style="stroke: #A80036; stroke-width: 1.5;" width="178" x="59.75" y="366"/><ellipse cx="74.75" cy="382" fill="#ADD1B2" rx="11" ry="11" style="stroke: #A80036; stroke-width: 1.0;"/><path d="M77.7188,387.6406 Q77.1406,387.9375 76.5,388.0859 Q75.8594,388.2344 75.1563,388.2344 Q72.6563,388.2344 71.3359,386.5859 Q70.0156,384.9375 70.0156,381.8125 Q70.0156,378.6875 71.3359,377.0313 Q72.6563,375.375 75.1563,375.375 Q75.8594,375.375 76.5078,375.5313 Q77.1563,375.6875 77.7188,375.9844 L77.7188,378.7031 Q77.0938,378.125 76.5,377.8516 Q75.9063,377.5781 75.2813,377.5781 Q73.9375,377.5781 73.25,378.6484 Q72.5625,379.7188 72.5625,381.8125 Q72.5625,383.9063 73.25,384.9766 Q73.9375,386.0469 75.2813,386.0469 Q75.9063,386.0469 76.5,385.7734 Q77.0938,385.5 77.7188,384.9219 L77.7188,387.6406 Z "/><text fill="#000000" font-family="sans-serif" font-size="12" lengthAdjust="spacingAndGlyphs" textLength="146" x="88.75" y="386.1543">IPDPairwiseCompetition</text><line style="stroke: #A80036; stroke-width: 1.5;" x1="60.75" x2="236.75" y1="398" y2="398"/><rect fill="none" height="6" style="stroke: #C82930; stroke-width: 1.0;" width="6" x="67.75" y="406.9023"/><text fill="#000000" font-family="sans-serif" font-size="11" lengthAdjust="spacingAndGlyphs" textLength="48" x="79.75" y="412.2104">_payoffs</text><rect fill="none" height="6" style="stroke: #C82930; stroke-width: 1.0;" width="6" x="67.75" y="419.707"/><text fill="#000000" font-family="sans-serif" font-size="11" lengthAdjust="spacingAndGlyphs" textLength="48" x="79.75" y="425.0151">_players</text><line style="stroke: #A80036; stroke-width: 1.0;" x1="60.75" x2="236.75" y1="431.6094" y2="431.6094"/><ellipse cx="70.75" cy="443.5117" fill="#84BE84" rx="3" ry="3" style="stroke: #038048; stroke-width: 1.0;"/><text fill="#000000" font-family="sans-serif" font-size="11" lengthAdjust="spacingAndGlyphs" textLength="83" x="79.75" y="445.8198">simulate(iters)</text><path d="M125.716,120.363 C120.095,135.667 114.035,152.171 108.301,167.784 " fill="none" style="stroke: #A80036; stroke-width: 1.0;"/><polygon fill="#A80036" points="130.316,107.835,124.4928,112.0883,126.1792,119.0994,132.0024,114.8461,130.316,107.835" style="stroke: #A80036; stroke-width: 1.0;"/><text fill="#000000" font-family="sans-serif" font-size="13" lengthAdjust="spacingAndGlyphs" textLength="8" x="118.0909" y="127.9586">2</text><text fill="#000000" font-family="sans-serif" font-size="13" lengthAdjust="spacingAndGlyphs" textLength="23" x="85.3968" y="156.9516">1..*</text><path d="M109.313,306.166 C117.013,326.303 125.215,347.754 132.095,365.7489 " fill="none" style="stroke: #A80036; stroke-width: 1.0;"/><text fill="#000000" font-family="sans-serif" font-size="13" lengthAdjust="spacingAndGlyphs" textLength="23" x="86.624" y="325.8043">1..*</text><text fill="#000000" font-family="sans-serif" font-size="13" lengthAdjust="spacingAndGlyphs" textLength="8" x="120.1851" y="354.843">1</text><path d="M163.569,365.923 C169.41,347.755 175.356,326.097 178.25,306 C186.992,245.293 186.462,228.781 178.25,168 C176.125,152.272 172.35,135.606 168.178,120.162 " fill="none" style="stroke: #A80036; stroke-width: 1.0;"/><polygon fill="#A80036" points="164.609,107.525,162.3909,114.3865,167.8715,119.073,170.0896,112.2115,164.609,107.525" style="stroke: #A80036; stroke-width: 1.0;"/><text fill="#000000" font-family="sans-serif" font-size="13" lengthAdjust="spacingAndGlyphs" textLength="23" x="139.8806" y="355.0403">1..*</text><text fill="#000000" font-family="sans-serif" font-size="13" lengthAdjust="spacingAndGlyphs" textLength="23" x="141.1758" y="127.9611">2..*</text></g></svg>