<?xml version="1.0" encoding="UTF-8" standalone="yes"?><svg xmlns="http://www.w3.org/2000/svg" xmlns:xlink="http://www.w3.org/1999/xlink" height="380px" style="width:238px;height:380px;" version="1.1" viewBox="0 0 238 380" width="238px"><defs><filter height="300%" id="f1" width="300%" x="-1" y="-1"><feGaussianBlur result="blurOut" stdDeviation="2.0"/><feColorMatrix in="blurOut" result="blurOut2" type="matrix" values="0 0 0 0 0 0 0 0 0 0 0 0 0 0 0 0 0 0 .4 0"/><feOffset dx="4.0" dy="4.0" in="blurOut2" result="blurOut3"/><feBlend in="SourceGraphic" in2="blurOut3" mode="normal"/></filter></defs><g><ellipse cx="115.5" cy="20" fill="#000000" filter="url(#f1)" rx="10" ry="10" style="stroke: none; stroke-width: 1.0;"/><rect fill="#FEFECE" filter="url(#f1)" height="33.9688" rx="12.5" ry="12.5" style="stroke: #A80036; stroke-width: 1.5;" width="198" x="16.5" y="94"/><text fill="#000000" font-family="sans-serif" font-size="12" lengthAdjust="spacingAndGlyphs" textLength="178" x="26.5" y="115.1387">simulate pairwise IPD games</text><rect fill="#FEFECE" filter="url(#f1)" height="33.9688" rx="12.5" ry="12.5" style="stroke: #A80036; stroke-width: 1.5;" width="186" x="22.5" y="147.9688"/><text fill="#000000" font-family="sans-serif" font-size="12" lengthAdjust="spacingAndGlyphs" textLength="130" x="32.5" y="169.1074">aggregate scores by</text><text fill="#000000" font-family="sans-serif" font-size="12" font-weight="bold" lengthAdjust="spacingAndGlyphs" textLength="32" x="166.5" y="169.1074">type</text><rect fill="#FEFECE" filter="url(#f1)" height="33.9688" rx="12.5" ry="12.5" style="stroke: #A80036; stroke-width: 1.5;" width="211" x="10" y="201.9375"/><text fill="#000000" font-family="sans-serif" font-size="12" lengthAdjust="spacingAndGlyphs" textLength="191" x="20" y="223.0762">compute likelihoods on scores</text><rect fill="#FEFECE" filter="url(#f1)" height="33.9688" rx="12.5" ry="12.5" style="stroke: #A80036; stroke-width: 1.5;" width="163" x="34" y="255.9063"/><text fill="#000000" font-family="sans-serif" font-size="12" lengthAdjust="spacingAndGlyphs" textLength="143" x="44" y="277.0449">create new generation</text><polygon fill="#FEFECE" filter="url(#f1)" points="115.5,50,127.5,62,115.5,74,103.5,62,115.5,50" style="stroke: #A80036; stroke-width: 1.5;"/><polygon fill="#FEFECE" filter="url(#f1)" points="58,309.875,173,309.875,185,321.875,173,333.875,58,333.875,46,321.875,58,309.875" style="stroke: #A80036; stroke-width: 1.5;"/><text fill="#000000" font-family="sans-serif" font-size="11" lengthAdjust="spacingAndGlyphs" textLength="115" x="58" y="325.6831">another generation?</text><ellipse cx="115.5" cy="363.875" fill="none" filter="url(#f1)" rx="10" ry="10" style="stroke: #000000; stroke-width: 1.0;"/><ellipse cx="116" cy="364.375" fill="#000000" filter="url(#f1)" rx="6" ry="6" style="stroke: none; stroke-width: 1.0;"/><line style="stroke: #A80036; stroke-width: 1.5;" x1="115.5" x2="115.5" y1="127.9688" y2="147.9688"/><polygon fill="#A80036" points="111.5,137.9688,115.5,147.9688,119.5,137.9688,115.5,141.9688" style="stroke: #A80036; stroke-width: 1.0;"/><line style="stroke: #A80036; stroke-width: 1.5;" x1="115.5" x2="115.5" y1="181.9375" y2="201.9375"/><polygon fill="#A80036" points="111.5,191.9375,115.5,201.9375,119.5,191.9375,115.5,195.9375" style="stroke: #A80036; stroke-width: 1.0;"/><line style="stroke: #A80036; stroke-width: 1.5;" x1="115.5" x2="115.5" y1="235.9063" y2="255.9063"/><polygon fill="#A80036" points="111.5,245.9063,115.5,255.9063,119.5,245.9063,115.5,249.9063" style="stroke: #A80036; stroke-width: 1.0;"/><line style="stroke: #A80036; stroke-width: 1.5;" x1="115.5" x2="115.5" y1="74" y2="94"/><polygon fill="#A80036" points="111.5,84,115.5,94,119.5,84,115.5,88" style="stroke: #A80036; stroke-width: 1.0;"/><line style="stroke: #A80036; stroke-width: 1.5;" x1="185" x2="233" y1="321.875" y2="321.875"/><polygon fill="#A80036" points="229,218.4375,233,208.4375,237,218.4375,233,214.4375" style="stroke: #A80036; stroke-width: 1.5;"/><line style="stroke: #A80036; stroke-width: 1.5;" x1="233" x2="233" y1="62" y2="321.875"/><line style="stroke: #A80036; stroke-width: 1.5;" x1="233" x2="127.5" y1="62" y2="62"/><polygon fill="#A80036" points="137.5,58,127.5,62,137.5,66,133.5,62" style="stroke: #A80036; stroke-width: 1.0;"/><line style="stroke: #A80036; stroke-width: 1.5;" x1="115.5" x2="115.5" y1="289.875" y2="309.875"/><polygon fill="#A80036" points="111.5,299.875,115.5,309.875,119.5,299.875,115.5,303.875" style="stroke: #A80036; stroke-width: 1.0;"/><line style="stroke: #A80036; stroke-width: 1.5;" x1="115.5" x2="115.5" y1="30" y2="50"/><polygon fill="#A80036" points="111.5,40,115.5,50,119.5,40,115.5,44" style="stroke: #A80036; stroke-width: 1.0;"/><line style="stroke: #A80036; stroke-width: 1.5;" x1="115.5" x2="115.5" y1="333.875" y2="353.875"/><polygon fill="#A80036" points="111.5,343.875,115.5,353.875,119.5,343.875,115.5,347.875" style="stroke: #A80036; stroke-width: 1.0;"/></g></svg>