<?xml version="1.0" encoding="UTF-8" standalone="yes"?><svg xmlns="http://www.w3.org/2000/svg" xmlns:xlink="http://www.w3.org/1999/xlink" height="250px" style="width:540px;height:250px;" version="1.1" viewBox="0 0 540 250" width="540px"><defs><filter height="300%" id="f1" width="300%" x="-1" y="-1"><feGaussianBlur result="blurOut" stdDeviation="2.0"/><feColorMatrix in="blurOut" result="blurOut2" type="matrix" values="0 0 0 0 0 0 0 0 0 0 0 0 0 0 0 0 0 0 .4 0"/><feOffset dx="4.0" dy="4.0" in="blurOut2" result="blurOut3"/><feBlend in="SourceGraphic" in2="blurOut3" mode="normal"/></filter></defs><g><rect fill="#FEFECE" filter="url(#f1)" height="99.2188" style="stroke: #A80036; stroke-width: 1.5;" width="110" x="421" y="142.5"/><ellipse cx="445" cy="158.5" fill="#ADD1B2" rx="11" ry="11" style="stroke: #A80036; stroke-width: 1.0;"/><path d="M447.9688,164.1406 Q447.3906,164.4375 446.75,164.5859 Q446.1094,164.7344 445.4063,164.7344 Q442.9063,164.7344 441.5859,163.0859 Q440.2656,161.4375 440.2656,158.3125 Q440.2656,155.1875 441.5859,153.5313 Q442.9063,151.875 445.4063,151.875 Q446.1094,151.875 446.7578,152.0313 Q447.4063,152.1875 447.9688,152.4844 L447.9688,155.2031 Q447.3438,154.625 446.75,154.3516 Q446.1563,154.0781 445.5313,154.0781 Q444.1875,154.0781 443.5,155.1484 Q442.8125,156.2188 442.8125,158.3125 Q442.8125,160.4063 443.5,161.4766 Q444.1875,162.5469 445.5313,162.5469 Q446.1563,162.5469 446.75,162.2734 Q447.3438,162 447.9688,161.4219 L447.9688,164.1406 Z "/><text fill="#000000" font-family="sans-serif" font-size="12" lengthAdjust="spacingAndGlyphs" textLength="58" x="461" y="162.6543">IPDPlayer</text><line style="stroke: #A80036; stroke-width: 1.5;" x1="422" x2="530" y1="174.5" y2="174.5"/><ellipse cx="432" cy="186.4023" fill="none" rx="3" ry="3" style="stroke: #038048; stroke-width: 1.0;"/><text fill="#000000" font-family="sans-serif" font-size="11" lengthAdjust="spacingAndGlyphs" textLength="10" x="441" y="188.7104">id</text><rect fill="none" height="6" style="stroke: #C82930; stroke-width: 1.0;" width="6" x="429" y="196.207"/><text fill="#000000" font-family="sans-serif" font-size="11" lengthAdjust="spacingAndGlyphs" textLength="30" x="441" y="201.5151">_type</text><rect fill="none" height="6" style="stroke: #C82930; stroke-width: 1.0;" width="6" x="429" y="209.0117"/><text fill="#000000" font-family="sans-serif" font-size="11" lengthAdjust="spacingAndGlyphs" textLength="64" x="441" y="214.3198">_ingame_id</text><line style="stroke: #A80036; stroke-width: 1.0;" x1="422" x2="530" y1="220.9141" y2="220.9141"/><ellipse cx="432" cy="232.8164" fill="#84BE84" rx="3" ry="3" style="stroke: #038048; stroke-width: 1.0;"/><text fill="#000000" font-family="sans-serif" font-size="11" lengthAdjust="spacingAndGlyphs" textLength="84" x="441" y="235.1245">act(game, iter)</text><rect fill="#FEFECE" filter="url(#f1)" height="86.4141" style="stroke: #A80036; stroke-width: 1.5;" width="122" x="256" y="149"/><ellipse cx="286.75" cy="165" fill="#ADD1B2" rx="11" ry="11" style="stroke: #A80036; stroke-width: 1.0;"/><path d="M289.7188,170.6406 Q289.1406,170.9375 288.5,171.0859 Q287.8594,171.2344 287.1563,171.2344 Q284.6563,171.2344 283.3359,169.5859 Q282.0156,167.9375 282.0156,164.8125 Q282.0156,161.6875 283.3359,160.0313 Q284.6563,158.375 287.1563,158.375 Q287.8594,158.375 288.5078,158.5313 Q289.1563,158.6875 289.7188,158.9844 L289.7188,161.7031 Q289.0938,161.125 288.5,160.8516 Q287.9063,160.5781 287.2813,160.5781 Q285.9375,160.5781 285.25,161.6484 Q284.5625,162.7188 284.5625,164.8125 Q284.5625,166.9063 285.25,167.9766 Q285.9375,169.0469 287.2813,169.0469 Q287.9063,169.0469 288.5,168.7734 Q289.0938,168.5 289.7188,167.9219 L289.7188,170.6406 Z "/><text fill="#000000" font-family="sans-serif" font-size="12" lengthAdjust="spacingAndGlyphs" textLength="55" x="304.25" y="169.1543">HBPlayer</text><line style="stroke: #A80036; stroke-width: 1.5;" x1="257" x2="377" y1="181" y2="181"/><rect fill="none" height="6" style="stroke: #C82930; stroke-width: 1.0;" width="6" x="264" y="189.9023"/><text fill="#000000" font-family="sans-serif" font-size="11" lengthAdjust="spacingAndGlyphs" textLength="86" x="276" y="195.2104">_history_length</text><rect fill="none" height="6" style="stroke: #C82930; stroke-width: 1.0;" width="6" x="264" y="202.707"/><text fill="#000000" font-family="sans-serif" font-size="11" lengthAdjust="spacingAndGlyphs" textLength="83" x="276" y="208.0151">_default_policy</text><line style="stroke: #A80036; stroke-width: 1.0;" x1="257" x2="377" y1="214.6094" y2="214.6094"/><rect fill="#F24D5C" height="6" style="stroke: #C82930; stroke-width: 1.0;" width="6" x="264" y="223.5117"/><text fill="#000000" font-family="sans-serif" font-size="11" lengthAdjust="spacingAndGlyphs" textLength="96" x="276" y="228.8198">_get_history(iter)</text><rect fill="#FEFECE" filter="url(#f1)" height="60.8047" style="stroke: #A80036; stroke-width: 1.5;" width="100" x="426" y="14.5"/><ellipse cx="441" cy="30.5" fill="#ADD1B2" rx="11" ry="11" style="stroke: #A80036; stroke-width: 1.0;"/><path d="M443.9688,36.1406 Q443.3906,36.4375 442.75,36.5859 Q442.1094,36.7344 441.4063,36.7344 Q438.9063,36.7344 437.5859,35.0859 Q436.2656,33.4375 436.2656,30.3125 Q436.2656,27.1875 437.5859,25.5313 Q438.9063,23.875 441.4063,23.875 Q442.1094,23.875 442.7578,24.0313 Q443.4063,24.1875 443.9688,24.4844 L443.9688,27.2031 Q443.3438,26.625 442.75,26.3516 Q442.1563,26.0781 441.5313,26.0781 Q440.1875,26.0781 439.5,27.1484 Q438.8125,28.2188 438.8125,30.3125 Q438.8125,32.4063 439.5,33.4766 Q440.1875,34.5469 441.5313,34.5469 Q442.1563,34.5469 442.75,34.2734 Q443.3438,34 443.9688,33.4219 L443.9688,36.1406 Z "/><text fill="#000000" font-family="sans-serif" font-size="12" lengthAdjust="spacingAndGlyphs" textLength="68" x="455" y="34.6543">GRIMPlayer</text><line style="stroke: #A80036; stroke-width: 1.5;" x1="427" x2="525" y1="46.5" y2="46.5"/><rect fill="none" height="6" style="stroke: #C82930; stroke-width: 1.0;" width="6" x="434" y="55.4023"/><text fill="#000000" font-family="sans-serif" font-size="11" lengthAdjust="spacingAndGlyphs" textLength="58" x="446" y="60.7104">_defecting</text><line style="stroke: #A80036; stroke-width: 1.5;" x1="427" x2="525" y1="67.3047" y2="67.3047"/><rect fill="#FEFECE" filter="url(#f1)" height="73.6094" style="stroke: #A80036; stroke-width: 1.5;" width="148" x="243" y="8"/><ellipse cx="281.85" cy="24" fill="#ADD1B2" rx="11" ry="11" style="stroke: #A80036; stroke-width: 1.0;"/><path d="M284.8188,29.6406 Q284.2406,29.9375 283.6,30.0859 Q282.9594,30.2344 282.2563,30.2344 Q279.7563,30.2344 278.4359,28.5859 Q277.1156,26.9375 277.1156,23.8125 Q277.1156,20.6875 278.4359,19.0313 Q279.7563,17.375 282.2563,17.375 Q282.9594,17.375 283.6078,17.5313 Q284.2563,17.6875 284.8188,17.9844 L284.8188,20.7031 Q284.1938,20.125 283.6,19.8516 Q283.0063,19.5781 282.3813,19.5781 Q281.0375,19.5781 280.35,20.6484 Q279.6625,21.7188 279.6625,23.8125 Q279.6625,25.9063 280.35,26.9766 Q281.0375,28.0469 282.3813,28.0469 Q283.0063,28.0469 283.6,27.7734 Q284.1938,27.5 284.8188,26.9219 L284.8188,29.6406 Z "/><text fill="#000000" font-family="sans-serif" font-size="12" lengthAdjust="spacingAndGlyphs" textLength="63" x="301.15" y="28.1543">PHBPlayer</text><line style="stroke: #A80036; stroke-width: 1.5;" x1="244" x2="390" y1="40" y2="40"/><rect fill="none" height="6" style="stroke: #C82930; stroke-width: 1.0;" width="6" x="251" y="48.9023"/><text fill="#000000" font-family="sans-serif" font-size="11" lengthAdjust="spacingAndGlyphs" textLength="37" x="263" y="54.2104">_alpha</text><line style="stroke: #A80036; stroke-width: 1.0;" x1="244" x2="390" y1="60.8047" y2="60.8047"/><rect fill="#F24D5C" height="6" style="stroke: #C82930; stroke-width: 1.0;" width="6" x="251" y="69.707"/><text fill="#000000" font-family="sans-serif" font-size="11" lengthAdjust="spacingAndGlyphs" textLength="122" x="263" y="75.0151">_predict_next(history)</text><rect fill="#FEFECE" filter="url(#f1)" height="48" style="stroke: #A80036; stroke-width: 1.5;" width="90" x="6" y="168"/><ellipse cx="21" cy="184" fill="#ADD1B2" rx="11" ry="11" style="stroke: #A80036; stroke-width: 1.0;"/><path d="M23.9688,189.6406 Q23.3906,189.9375 22.75,190.0859 Q22.1094,190.2344 21.4063,190.2344 Q18.9063,190.2344 17.5859,188.5859 Q16.2656,186.9375 16.2656,183.8125 Q16.2656,180.6875 17.5859,179.0313 Q18.9063,177.375 21.4063,177.375 Q22.1094,177.375 22.7578,177.5313 Q23.4063,177.6875 23.9688,177.9844 L23.9688,180.7031 Q23.3438,180.125 22.75,179.8516 Q22.1563,179.5781 21.5313,179.5781 Q20.1875,179.5781 19.5,180.6484 Q18.8125,181.7188 18.8125,183.8125 Q18.8125,185.9063 19.5,186.9766 Q20.1875,188.0469 21.5313,188.0469 Q22.1563,188.0469 22.75,187.7734 Q23.3438,187.5 23.9688,186.9219 L23.9688,189.6406 Z "/><text fill="#000000" font-family="sans-serif" font-size="12" lengthAdjust="spacingAndGlyphs" textLength="58" x="35" y="188.1543">SMPlauer</text><line style="stroke: #A80036; stroke-width: 1.5;" x1="7" x2="95" y1="200" y2="200"/><line style="stroke: #A80036; stroke-width: 1.5;" x1="7" x2="95" y1="208" y2="208"/><rect fill="#FEFECE" filter="url(#f1)" height="48" style="stroke: #A80036; stroke-width: 1.5;" width="89" x="131.75" y="168"/><ellipse cx="146.75" cy="184" fill="#ADD1B2" rx="11" ry="11" style="stroke: #A80036; stroke-width: 1.0;"/><path d="M149.7188,189.6406 Q149.1406,189.9375 148.5,190.0859 Q147.8594,190.2344 147.1563,190.2344 Q144.6563,190.2344 143.3359,188.5859 Q142.0156,186.9375 142.0156,183.8125 Q142.0156,180.6875 143.3359,179.0313 Q144.6563,177.375 147.1563,177.375 Q147.8594,177.375 148.5078,177.5313 Q149.1563,177.6875 149.7188,177.9844 L149.7188,180.7031 Q149.0938,180.125 148.5,179.8516 Q147.9063,179.5781 147.2813,179.5781 Q145.9375,179.5781 145.25,180.6484 Q144.5625,181.7188 144.5625,183.8125 Q144.5625,185.9063 145.25,186.9766 Q145.9375,188.0469 147.2813,188.0469 Q147.9063,188.0469 148.5,187.7734 Q149.0938,187.5 149.7188,186.9219 L149.7188,189.6406 Z "/><text fill="#000000" font-family="sans-serif" font-size="12" lengthAdjust="spacingAndGlyphs" textLength="57" x="160.75" y="188.1543">HMPlayer</text><line style="stroke: #A80036; stroke-width: 1.5;" x1="132.75" x2="219.75" y1="200" y2="200"/><line style="stroke: #A80036; stroke-width: 1.5;" x1="132.75" x2="219.75" y1="208" y2="208"/><path d="M378.178,192 C385.756,192 393.335,192 400.914,192 " fill="none" style="stroke: #A80036; stroke-width: 1.0;"/><polygon fill="none" points="400.975,184.9999,420.975,192,400.975,198.9999,400.975,184.9999" style="stroke: #A80036; stroke-width: 1.0;"/><path d="M476,75.693 C476,89.15 476,105.673 476,121.963 " fill="none" style="stroke: #A80036; stroke-width: 1.0;"/><polygon fill="none" points="483,122.223,476,142.223,469,122.223,483,122.223" style="stroke: #A80036; stroke-width: 1.0;"/><path d="M67.2093,167.6214 C81.5419,148.4571 104.3593,123.193 131.5,112 C168.068,96.92 183.29,98.582 220.5,112 C235.161,117.287 249.172,125.877 261.748,135.508 " fill="none" style="stroke: #A80036; stroke-width: 1.0;"/><polygon fill="none" points="266.531,130.382,277.389,148.5782,257.553,141.125,266.531,130.382" style="stroke: #A80036; stroke-width: 1.0;"/><path d="M220.338,192 C225.422,192 230.505,192 235.589,192 " fill="none" style="stroke: #A80036; stroke-width: 1.0;"/><polygon fill="none" points="235.831,184.9999,255.831,192,235.831,198.9999,235.831,184.9999" style="stroke: #A80036; stroke-width: 1.0;"/><path d="M317,82.216 C317,96.272 317,112.78 317,128.629 " fill="none" style="stroke: #A80036; stroke-width: 1.0;"/><polygon fill="none" points="324,128.823,317,148.8233,310,128.823,324,128.823" style="stroke: #A80036; stroke-width: 1.0;"/></g></svg>