<?xml version="1.0" encoding="UTF-8" standalone="yes"?><svg xmlns="http://www.w3.org/2000/svg" xmlns:xlink="http://www.w3.org/1999/xlink" height="158px" style="width:553px;height:158px;" version="1.1" viewBox="0 0 553 158" width="553px"><defs><filter height="300%" id="f1" width="300%" x="-1" y="-1"><feGaussianBlur result="blurOut" stdDeviation="2.0"/><feColorMatrix in="blurOut" result="blurOut2" type="matrix" values="0 0 0 0 0 0 0 0 0 0 0 0 0 0 0 0 0 0 .4 0"/><feOffset dx="4.0" dy="4.0" in="blurOut2" result="blurOut3"/><feBlend in="SourceGraphic" in2="blurOut3" mode="normal"/></filter></defs><g><rect fill="#FEFECE" filter="url(#f1)" height="99.2188" style="stroke: #A80036; stroke-width: 1.5;" width="110" x="434.25" y="50.5"/><ellipse cx="458.25" cy="66.5" fill="#ADD1B2" rx="11" ry="11" style="stroke: #A80036; stroke-width: 1.0;"/><path d="M461.2188,72.1406 Q460.6406,72.4375 460,72.5859 Q459.3594,72.7344 458.6563,72.7344 Q456.1563,72.7344 454.8359,71.0859 Q453.5156,69.4375 453.5156,66.3125 Q453.5156,63.1875 454.8359,61.5313 Q456.1563,59.875 458.6563,59.875 Q459.3594,59.875 460.0078,60.0313 Q460.6563,60.1875 461.2188,60.4844 L461.2188,63.2031 Q460.5938,62.625 460,62.3516 Q459.4063,62.0781 458.7813,62.0781 Q457.4375,62.0781 456.75,63.1484 Q456.0625,64.2188 456.0625,66.3125 Q456.0625,68.4063 456.75,69.4766 Q457.4375,70.5469 458.7813,70.5469 Q459.4063,70.5469 460,70.2734 Q460.5938,70 461.2188,69.4219 L461.2188,72.1406 Z "/><text fill="#000000" font-family="sans-serif" font-size="12" lengthAdjust="spacingAndGlyphs" textLength="58" x="474.25" y="70.6543">IPDPlayer</text><line style="stroke: #A80036; stroke-width: 1.5;" x1="435.25" x2="543.25" y1="82.5" y2="82.5"/><ellipse cx="445.25" cy="94.4023" fill="none" rx="3" ry="3" style="stroke: #038048; stroke-width: 1.0;"/><text fill="#000000" font-family="sans-serif" font-size="11" lengthAdjust="spacingAndGlyphs" textLength="10" x="454.25" y="96.7104">id</text><rect fill="none" height="6" style="stroke: #C82930; stroke-width: 1.0;" width="6" x="442.25" y="104.207"/><text fill="#000000" font-family="sans-serif" font-size="11" lengthAdjust="spacingAndGlyphs" textLength="30" x="454.25" y="109.5151">_type</text><rect fill="none" height="6" style="stroke: #C82930; stroke-width: 1.0;" width="6" x="442.25" y="117.0117"/><text fill="#000000" font-family="sans-serif" font-size="11" lengthAdjust="spacingAndGlyphs" textLength="64" x="454.25" y="122.3198">_ingame_id</text><line style="stroke: #A80036; stroke-width: 1.0;" x1="435.25" x2="543.25" y1="128.9141" y2="128.9141"/><ellipse cx="445.25" cy="140.8164" fill="#84BE84" rx="3" ry="3" style="stroke: #038048; stroke-width: 1.0;"/><text fill="#000000" font-family="sans-serif" font-size="11" lengthAdjust="spacingAndGlyphs" textLength="84" x="454.25" y="143.1245">act(game, iter)</text><rect fill="#FEFECE" filter="url(#f1)" height="73.6094" style="stroke: #A80036; stroke-width: 1.5;" width="109" x="290" y="63"/><ellipse cx="314.45" cy="79" fill="#ADD1B2" rx="11" ry="11" style="stroke: #A80036; stroke-width: 1.0;"/><path d="M317.4188,84.6406 Q316.8406,84.9375 316.2,85.0859 Q315.5594,85.2344 314.8563,85.2344 Q312.3563,85.2344 311.0359,83.5859 Q309.7156,81.9375 309.7156,78.8125 Q309.7156,75.6875 311.0359,74.0313 Q312.3563,72.375 314.8563,72.375 Q315.5594,72.375 316.2078,72.5313 Q316.8563,72.6875 317.4188,72.9844 L317.4188,75.7031 Q316.7938,75.125 316.2,74.8516 Q315.6063,74.5781 314.9813,74.5781 Q313.6375,74.5781 312.95,75.6484 Q312.2625,76.7188 312.2625,78.8125 Q312.2625,80.9063 312.95,81.9766 Q313.6375,83.0469 314.9813,83.0469 Q315.6063,83.0469 316.2,82.7734 Q316.7938,82.5 317.4188,81.9219 L317.4188,84.6406 Z "/><text fill="#000000" font-family="sans-serif" font-size="12" lengthAdjust="spacingAndGlyphs" textLength="56" x="330.55" y="83.1543">M1Player</text><line style="stroke: #A80036; stroke-width: 1.5;" x1="291" x2="398" y1="95" y2="95"/><rect fill="none" height="6" style="stroke: #C82930; stroke-width: 1.0;" width="6" x="298" y="103.9023"/><text fill="#000000" font-family="sans-serif" font-size="11" lengthAdjust="spacingAndGlyphs" textLength="72" x="310" y="109.2104">_cond_probs</text><rect fill="none" height="6" style="stroke: #C82930; stroke-width: 1.0;" width="6" x="298" y="116.707"/><text fill="#000000" font-family="sans-serif" font-size="11" lengthAdjust="spacingAndGlyphs" textLength="83" x="310" y="122.0151">_default_policy</text><line style="stroke: #A80036; stroke-width: 1.5;" x1="291" x2="398" y1="128.6094" y2="128.6094"/><rect fill="#FEFECE" filter="url(#f1)" height="73.6094" style="stroke: #A80036; stroke-width: 1.5;" width="111" x="6" y="63"/><ellipse cx="30" cy="79" fill="#ADD1B2" rx="11" ry="11" style="stroke: #A80036; stroke-width: 1.0;"/><path d="M32.9688,84.6406 Q32.3906,84.9375 31.75,85.0859 Q31.1094,85.2344 30.4063,85.2344 Q27.9063,85.2344 26.5859,83.5859 Q25.2656,81.9375 25.2656,78.8125 Q25.2656,75.6875 26.5859,74.0313 Q27.9063,72.375 30.4063,72.375 Q31.1094,72.375 31.7578,72.5313 Q32.4063,72.6875 32.9688,72.9844 L32.9688,75.7031 Q32.3438,75.125 31.75,74.8516 Q31.1563,74.5781 30.5313,74.5781 Q29.1875,74.5781 28.5,75.6484 Q27.8125,76.7188 27.8125,78.8125 Q27.8125,80.9063 28.5,81.9766 Q29.1875,83.0469 30.5313,83.0469 Q31.1563,83.0469 31.75,82.7734 Q32.3438,82.5 32.9688,81.9219 L32.9688,84.6406 Z "/><text fill="#000000" font-family="sans-serif" font-size="12" lengthAdjust="spacingAndGlyphs" textLength="59" x="46" y="83.1543">TFTPlayer</text><line style="stroke: #A80036; stroke-width: 1.5;" x1="7" x2="116" y1="95" y2="95"/><rect fill="none" height="6" style="stroke: #C82930; stroke-width: 1.0;" width="6" x="14" y="103.9023"/><text fill="#000000" font-family="sans-serif" font-size="11" lengthAdjust="spacingAndGlyphs" textLength="85" x="26" y="109.2104">_cond_probs_0</text><rect fill="none" height="6" style="stroke: #C82930; stroke-width: 1.0;" width="6" x="14" y="116.707"/><text fill="#000000" font-family="sans-serif" font-size="11" lengthAdjust="spacingAndGlyphs" textLength="85" x="26" y="122.0151">_cond_probs_1</text><line style="stroke: #A80036; stroke-width: 1.5;" x1="7" x2="116" y1="128.6094" y2="128.6094"/><rect fill="#FEFECE" filter="url(#f1)" height="48" style="stroke: #A80036; stroke-width: 1.5;" width="103" x="152" y="76"/><ellipse cx="167" cy="92" fill="#ADD1B2" rx="11" ry="11" style="stroke: #A80036; stroke-width: 1.0;"/><path d="M169.9688,97.6406 Q169.3906,97.9375 168.75,98.0859 Q168.1094,98.2344 167.4063,98.2344 Q164.9063,98.2344 163.5859,96.5859 Q162.2656,94.9375 162.2656,91.8125 Q162.2656,88.6875 163.5859,87.0313 Q164.9063,85.375 167.4063,85.375 Q168.1094,85.375 168.7578,85.5313 Q169.4063,85.6875 169.9688,85.9844 L169.9688,88.7031 Q169.3438,88.125 168.75,87.8516 Q168.1563,87.5781 167.5313,87.5781 Q166.1875,87.5781 165.5,88.6484 Q164.8125,89.7188 164.8125,91.8125 Q164.8125,93.9063 165.5,94.9766 Q166.1875,96.0469 167.5313,96.0469 Q168.1563,96.0469 168.75,95.7734 Q169.3438,95.5 169.9688,94.9219 L169.9688,97.6406 Z "/><text fill="#000000" font-family="sans-serif" font-size="12" lengthAdjust="spacingAndGlyphs" textLength="71" x="181" y="96.1543">WSLSPlayer</text><line style="stroke: #A80036; stroke-width: 1.5;" x1="153" x2="254" y1="108" y2="108"/><line style="stroke: #A80036; stroke-width: 1.5;" x1="153" x2="254" y1="116" y2="116"/><path d="M398.625,100 C403.695,100 408.766,100 413.836,100 " fill="none" style="stroke: #A80036; stroke-width: 1.0;"/><polygon fill="none" points="414.025,92.9999,434.025,100,414.025,106.9999,414.025,92.9999" style="stroke: #A80036; stroke-width: 1.0;"/><path d="M91.6176,62.9606 C107.572,46.444 128.608,28.762 151.75,20 C194.562,3.79 211.983,3.672 254.75,20 C271.263,26.304 286.658,37.212 299.863,48.981 " fill="none" style="stroke: #A80036; stroke-width: 1.0;"/><polygon fill="none" points="304.805,44.023,314.295,62.9686,295.062,54.0759,304.805,44.023" style="stroke: #A80036; stroke-width: 1.0;"/><path d="M254.748,100 C259.665,100 264.581,100 269.498,100 " fill="none" style="stroke: #A80036; stroke-width: 1.0;"/><polygon fill="none" points="269.71,92.9999,289.71,100,269.71,106.9999,269.71,92.9999" style="stroke: #A80036; stroke-width: 1.0;"/></g></svg>