<?xml version="1.0" encoding="UTF-8" standalone="yes"?><svg xmlns="http://www.w3.org/2000/svg" xmlns:xlink="http://www.w3.org/1999/xlink" height="157px" style="width:530px;height:157px;" version="1.1" viewBox="0 0 530 157" width="530px"><defs><filter height="300%" id="f1" width="300%" x="-1" y="-1"><feGaussianBlur result="blurOut" stdDeviation="2.0"/><feColorMatrix in="blurOut" result="blurOut2" type="matrix" values="0 0 0 0 0 0 0 0 0 0 0 0 0 0 0 0 0 0 .4 0"/><feOffset dx="4.0" dy="4.0" in="blurOut2" result="blurOut3"/><feBlend in="SourceGraphic" in2="blurOut3" mode="normal"/></filter></defs><g><rect fill="#FEFECE" filter="url(#f1)" height="99.2188" style="stroke: #A80036; stroke-width: 1.5;" width="110" x="411" y="49.5"/><ellipse cx="435" cy="65.5" fill="#ADD1B2" rx="11" ry="11" style="stroke: #A80036; stroke-width: 1.0;"/><path d="M437.9688,71.1406 Q437.3906,71.4375 436.75,71.5859 Q436.1094,71.7344 435.4063,71.7344 Q432.9063,71.7344 431.5859,70.0859 Q430.2656,68.4375 430.2656,65.3125 Q430.2656,62.1875 431.5859,60.5313 Q432.9063,58.875 435.4063,58.875 Q436.1094,58.875 436.7578,59.0313 Q437.4063,59.1875 437.9688,59.4844 L437.9688,62.2031 Q437.3438,61.625 436.75,61.3516 Q436.1563,61.0781 435.5313,61.0781 Q434.1875,61.0781 433.5,62.1484 Q432.8125,63.2188 432.8125,65.3125 Q432.8125,67.4063 433.5,68.4766 Q434.1875,69.5469 435.5313,69.5469 Q436.1563,69.5469 436.75,69.2734 Q437.3438,69 437.9688,68.4219 L437.9688,71.1406 Z "/><text fill="#000000" font-family="sans-serif" font-size="12" lengthAdjust="spacingAndGlyphs" textLength="58" x="451" y="69.6543">IPDPlayer</text><line style="stroke: #A80036; stroke-width: 1.5;" x1="412" x2="520" y1="81.5" y2="81.5"/><ellipse cx="422" cy="93.4023" fill="none" rx="3" ry="3" style="stroke: #038048; stroke-width: 1.0;"/><text fill="#000000" font-family="sans-serif" font-size="11" lengthAdjust="spacingAndGlyphs" textLength="10" x="431" y="95.7104">id</text><rect fill="none" height="6" style="stroke: #C82930; stroke-width: 1.0;" width="6" x="419" y="103.207"/><text fill="#000000" font-family="sans-serif" font-size="11" lengthAdjust="spacingAndGlyphs" textLength="30" x="431" y="108.5151">_type</text><rect fill="none" height="6" style="stroke: #C82930; stroke-width: 1.0;" width="6" x="419" y="116.0117"/><text fill="#000000" font-family="sans-serif" font-size="11" lengthAdjust="spacingAndGlyphs" textLength="64" x="431" y="121.3198">_ingame_id</text><line style="stroke: #A80036; stroke-width: 1.0;" x1="412" x2="520" y1="127.9141" y2="127.9141"/><ellipse cx="422" cy="139.8164" fill="#84BE84" rx="3" ry="3" style="stroke: #038048; stroke-width: 1.0;"/><text fill="#000000" font-family="sans-serif" font-size="11" lengthAdjust="spacingAndGlyphs" textLength="84" x="431" y="142.1245">act(game, iter)</text><rect fill="#FEFECE" filter="url(#f1)" height="86.4141" style="stroke: #A80036; stroke-width: 1.5;" width="114" x="262" y="56"/><ellipse cx="286" cy="72" fill="#ADD1B2" rx="11" ry="11" style="stroke: #A80036; stroke-width: 1.0;"/><path d="M288.9688,77.6406 Q288.3906,77.9375 287.75,78.0859 Q287.1094,78.2344 286.4063,78.2344 Q283.9063,78.2344 282.5859,76.5859 Q281.2656,74.9375 281.2656,71.8125 Q281.2656,68.6875 282.5859,67.0313 Q283.9063,65.375 286.4063,65.375 Q287.1094,65.375 287.7578,65.5313 Q288.4063,65.6875 288.9688,65.9844 L288.9688,68.7031 Q288.3438,68.125 287.75,67.8516 Q287.1563,67.5781 286.5313,67.5781 Q285.1875,67.5781 284.5,68.6484 Q283.8125,69.7188 283.8125,71.8125 Q283.8125,73.9063 284.5,74.9766 Q285.1875,76.0469 286.5313,76.0469 Q287.1563,76.0469 287.75,75.7734 Q288.3438,75.5 288.9688,74.9219 L288.9688,77.6406 Z "/><text fill="#000000" font-family="sans-serif" font-size="12" lengthAdjust="spacingAndGlyphs" textLength="62" x="302" y="76.1543">PERPlayer</text><line style="stroke: #A80036; stroke-width: 1.5;" x1="263" x2="375" y1="88" y2="88"/><rect fill="none" height="6" style="stroke: #C82930; stroke-width: 1.0;" width="6" x="270" y="96.9023"/><text fill="#000000" font-family="sans-serif" font-size="11" lengthAdjust="spacingAndGlyphs" textLength="47" x="282" y="102.2104">_pattern</text><rect fill="none" height="6" style="stroke: #C82930; stroke-width: 1.0;" width="6" x="270" y="109.707"/><text fill="#000000" font-family="sans-serif" font-size="11" lengthAdjust="spacingAndGlyphs" textLength="88" x="282" y="115.0151">_pattern_length</text><rect fill="none" height="6" style="stroke: #C82930; stroke-width: 1.0;" width="6" x="270" y="122.5117"/><text fill="#000000" font-family="sans-serif" font-size="11" lengthAdjust="spacingAndGlyphs" textLength="27" x="282" y="127.8198">_pos</text><line style="stroke: #A80036; stroke-width: 1.5;" x1="263" x2="375" y1="134.4141" y2="134.4141"/><rect fill="#FEFECE" filter="url(#f1)" height="48" style="stroke: #A80036; stroke-width: 1.5;" width="92" x="6" y="75"/><ellipse cx="21" cy="91" fill="#ADD1B2" rx="11" ry="11" style="stroke: #A80036; stroke-width: 1.0;"/><path d="M23.9688,96.6406 Q23.3906,96.9375 22.75,97.0859 Q22.1094,97.2344 21.4063,97.2344 Q18.9063,97.2344 17.5859,95.5859 Q16.2656,93.9375 16.2656,90.8125 Q16.2656,87.6875 17.5859,86.0313 Q18.9063,84.375 21.4063,84.375 Q22.1094,84.375 22.7578,84.5313 Q23.4063,84.6875 23.9688,84.9844 L23.9688,87.7031 Q23.3438,87.125 22.75,86.8516 Q22.1563,86.5781 21.5313,86.5781 Q20.1875,86.5781 19.5,87.6484 Q18.8125,88.7188 18.8125,90.8125 Q18.8125,92.9063 19.5,93.9766 Q20.1875,95.0469 21.5313,95.0469 Q22.1563,95.0469 22.75,94.7734 Q23.3438,94.5 23.9688,93.9219 L23.9688,96.6406 Z "/><text fill="#000000" font-family="sans-serif" font-size="12" lengthAdjust="spacingAndGlyphs" textLength="60" x="35" y="95.1543">AllCPlayer</text><line style="stroke: #A80036; stroke-width: 1.5;" x1="7" x2="97" y1="107" y2="107"/><line style="stroke: #A80036; stroke-width: 1.5;" x1="7" x2="97" y1="115" y2="115"/><rect fill="#FEFECE" filter="url(#f1)" height="48" style="stroke: #A80036; stroke-width: 1.5;" width="93" x="133.75" y="75"/><ellipse cx="148.75" cy="91" fill="#ADD1B2" rx="11" ry="11" style="stroke: #A80036; stroke-width: 1.0;"/><path d="M151.7188,96.6406 Q151.1406,96.9375 150.5,97.0859 Q149.8594,97.2344 149.1563,97.2344 Q146.6563,97.2344 145.3359,95.5859 Q144.0156,93.9375 144.0156,90.8125 Q144.0156,87.6875 145.3359,86.0313 Q146.6563,84.375 149.1563,84.375 Q149.8594,84.375 150.5078,84.5313 Q151.1563,84.6875 151.7188,84.9844 L151.7188,87.7031 Q151.0938,87.125 150.5,86.8516 Q149.9063,86.5781 149.2813,86.5781 Q147.9375,86.5781 147.25,87.6484 Q146.5625,88.7188 146.5625,90.8125 Q146.5625,92.9063 147.25,93.9766 Q147.9375,95.0469 149.2813,95.0469 Q149.9063,95.0469 150.5,94.7734 Q151.0938,94.5 151.7188,93.9219 L151.7188,96.6406 Z "/><text fill="#000000" font-family="sans-serif" font-size="12" lengthAdjust="spacingAndGlyphs" textLength="61" x="162.75" y="95.1543">AllDPlayer</text><line style="stroke: #A80036; stroke-width: 1.5;" x1="134.75" x2="225.75" y1="107" y2="107"/><line style="stroke: #A80036; stroke-width: 1.5;" x1="134.75" x2="225.75" y1="115" y2="115"/><path d="M376.135,99 C381.022,99 385.909,99 390.796,99 " fill="none" style="stroke: #A80036; stroke-width: 1.0;"/><polygon fill="none" points="390.887,91.9999,410.887,99,390.887,105.9999,390.887,91.9999" style="stroke: #A80036; stroke-width: 1.0;"/><path d="M68.1882,74.9991 C82.7218,55.785 105.971,30.253 133.5,19 C171.76,3.36 187.766,4.574 226.5,19 C240.589,24.248 253.962,32.713 265.936,42.215 " fill="none" style="stroke: #A80036; stroke-width: 1.0;"/><polygon fill="none" points="270.838,37.201,281.333,55.6094,261.649,47.764,270.838,37.201" style="stroke: #A80036; stroke-width: 1.0;"/><path d="M226.424,99 C231.5,99 236.576,99 241.652,99 " fill="none" style="stroke: #A80036; stroke-width: 1.0;"/><polygon fill="none" points="241.863,91.9999,261.863,99,241.863,105.9999,241.863,91.9999" style="stroke: #A80036; stroke-width: 1.0;"/></g></svg>