<?xml version="1.0" encoding="UTF-8" standalone="yes"?><svg xmlns="http://www.w3.org/2000/svg" xmlns:xlink="http://www.w3.org/1999/xlink" height="176px" style="width:807px;height:176px;" version="1.1" viewBox="0 0 807 176" width="807px"><defs><filter height="300%" id="f1" width="300%" x="-1" y="-1"><feGaussianBlur result="blurOut" stdDeviation="2.0"/><feColorMatrix in="blurOut" result="blurOut2" type="matrix" values="0 0 0 0 0 0 0 0 0 0 0 0 0 0 0 0 0 0 .4 0"/><feOffset dx="4.0" dy="4.0" in="blurOut2" result="blurOut3"/><feBlend in="SourceGraphic" in2="blurOut3" mode="normal"/></filter></defs><g><rect fill="#FEFECE" filter="url(#f1)" height="99.2188" style="stroke: #A80036; stroke-width: 1.5;" width="110" x="688" y="68.5"/><ellipse cx="712" cy="84.5" fill="#ADD1B2" rx="11" ry="11" style="stroke: #A80036; stroke-width: 1.0;"/><path d="M714.9688,90.1406 Q714.3906,90.4375 713.75,90.5859 Q713.1094,90.7344 712.4063,90.7344 Q709.9063,90.7344 708.5859,89.0859 Q707.2656,87.4375 707.2656,84.3125 Q707.2656,81.1875 708.5859,79.5313 Q709.9063,77.875 712.4063,77.875 Q713.1094,77.875 713.7578,78.0313 Q714.4063,78.1875 714.9688,78.4844 L714.9688,81.2031 Q714.3438,80.625 713.75,80.3516 Q713.1563,80.0781 712.5313,80.0781 Q711.1875,80.0781 710.5,81.1484 Q709.8125,82.2188 709.8125,84.3125 Q709.8125,86.4063 710.5,87.4766 Q711.1875,88.5469 712.5313,88.5469 Q713.1563,88.5469 713.75,88.2734 Q714.3438,88 714.9688,87.4219 L714.9688,90.1406 Z "/><text fill="#000000" font-family="sans-serif" font-size="12" lengthAdjust="spacingAndGlyphs" textLength="58" x="728" y="88.6543">IPDPlayer</text><line style="stroke: #A80036; stroke-width: 1.5;" x1="689" x2="797" y1="100.5" y2="100.5"/><ellipse cx="699" cy="112.4023" fill="none" rx="3" ry="3" style="stroke: #038048; stroke-width: 1.0;"/><text fill="#000000" font-family="sans-serif" font-size="11" lengthAdjust="spacingAndGlyphs" textLength="10" x="708" y="114.7104">id</text><rect fill="none" height="6" style="stroke: #C82930; stroke-width: 1.0;" width="6" x="696" y="122.207"/><text fill="#000000" font-family="sans-serif" font-size="11" lengthAdjust="spacingAndGlyphs" textLength="30" x="708" y="127.5151">_type</text><rect fill="none" height="6" style="stroke: #C82930; stroke-width: 1.0;" width="6" x="696" y="135.0117"/><text fill="#000000" font-family="sans-serif" font-size="11" lengthAdjust="spacingAndGlyphs" textLength="64" x="708" y="140.3198">_ingame_id</text><line style="stroke: #A80036; stroke-width: 1.0;" x1="689" x2="797" y1="146.9141" y2="146.9141"/><ellipse cx="699" cy="158.8164" fill="#84BE84" rx="3" ry="3" style="stroke: #038048; stroke-width: 1.0;"/><text fill="#000000" font-family="sans-serif" font-size="11" lengthAdjust="spacingAndGlyphs" textLength="84" x="708" y="161.1245">act(game, iter)</text><rect fill="#FEFECE" filter="url(#f1)" height="86.4141" style="stroke: #A80036; stroke-width: 1.5;" width="114" x="539" y="75"/><ellipse cx="563" cy="91" fill="#ADD1B2" rx="11" ry="11" style="stroke: #A80036; stroke-width: 1.0;"/><path d="M565.9688,96.6406 Q565.3906,96.9375 564.75,97.0859 Q564.1094,97.2344 563.4063,97.2344 Q560.9063,97.2344 559.5859,95.5859 Q558.2656,93.9375 558.2656,90.8125 Q558.2656,87.6875 559.5859,86.0313 Q560.9063,84.375 563.4063,84.375 Q564.1094,84.375 564.7578,84.5313 Q565.4063,84.6875 565.9688,84.9844 L565.9688,87.7031 Q565.3438,87.125 564.75,86.8516 Q564.1563,86.5781 563.5313,86.5781 Q562.1875,86.5781 561.5,87.6484 Q560.8125,88.7188 560.8125,90.8125 Q560.8125,92.9063 561.5,93.9766 Q562.1875,95.0469 563.5313,95.0469 Q564.1563,95.0469 564.75,94.7734 Q565.3438,94.5 565.9688,93.9219 L565.9688,96.6406 Z "/><text fill="#000000" font-family="sans-serif" font-size="12" lengthAdjust="spacingAndGlyphs" textLength="62" x="579" y="95.1543">PERPlayer</text><line style="stroke: #A80036; stroke-width: 1.5;" x1="540" x2="652" y1="107" y2="107"/><rect fill="none" height="6" style="stroke: #C82930; stroke-width: 1.0;" width="6" x="547" y="115.9023"/><text fill="#000000" font-family="sans-serif" font-size="11" lengthAdjust="spacingAndGlyphs" textLength="47" x="559" y="121.2104">_pattern</text><rect fill="none" height="6" style="stroke: #C82930; stroke-width: 1.0;" width="6" x="547" y="128.707"/><text fill="#000000" font-family="sans-serif" font-size="11" lengthAdjust="spacingAndGlyphs" textLength="88" x="559" y="134.0151">_pattern_length</text><rect fill="none" height="6" style="stroke: #C82930; stroke-width: 1.0;" width="6" x="547" y="141.5117"/><text fill="#000000" font-family="sans-serif" font-size="11" lengthAdjust="spacingAndGlyphs" textLength="27" x="559" y="146.8198">_pos</text><line style="stroke: #A80036; stroke-width: 1.5;" x1="540" x2="652" y1="153.4141" y2="153.4141"/><rect fill="#FEFECE" filter="url(#f1)" height="48" style="stroke: #A80036; stroke-width: 1.5;" width="92" x="6" y="94"/><ellipse cx="21" cy="110" fill="#ADD1B2" rx="11" ry="11" style="stroke: #A80036; stroke-width: 1.0;"/><path d="M23.9688,115.6406 Q23.3906,115.9375 22.75,116.0859 Q22.1094,116.2344 21.4063,116.2344 Q18.9063,116.2344 17.5859,114.5859 Q16.2656,112.9375 16.2656,109.8125 Q16.2656,106.6875 17.5859,105.0313 Q18.9063,103.375 21.4063,103.375 Q22.1094,103.375 22.7578,103.5313 Q23.4063,103.6875 23.9688,103.9844 L23.9688,106.7031 Q23.3438,106.125 22.75,105.8516 Q22.1563,105.5781 21.5313,105.5781 Q20.1875,105.5781 19.5,106.6484 Q18.8125,107.7188 18.8125,109.8125 Q18.8125,111.9063 19.5,112.9766 Q20.1875,114.0469 21.5313,114.0469 Q22.1563,114.0469 22.75,113.7734 Q23.3438,113.5 23.9688,112.9219 L23.9688,115.6406 Z "/><text fill="#000000" font-family="sans-serif" font-size="12" lengthAdjust="spacingAndGlyphs" textLength="60" x="35" y="114.1543">AllCPlayer</text><line style="stroke: #A80036; stroke-width: 1.5;" x1="7" x2="97" y1="126" y2="126"/><line style="stroke: #A80036; stroke-width: 1.5;" x1="7" x2="97" y1="134" y2="134"/><rect fill="#FEFECE" filter="url(#f1)" height="48" style="stroke: #A80036; stroke-width: 1.5;" width="93" x="133.75" y="94"/><ellipse cx="148.75" cy="110" fill="#ADD1B2" rx="11" ry="11" style="stroke: #A80036; stroke-width: 1.0;"/><path d="M151.7188,115.6406 Q151.1406,115.9375 150.5,116.0859 Q149.8594,116.2344 149.1563,116.2344 Q146.6563,116.2344 145.3359,114.5859 Q144.0156,112.9375 144.0156,109.8125 Q144.0156,106.6875 145.3359,105.0313 Q146.6563,103.375 149.1563,103.375 Q149.8594,103.375 150.5078,103.5313 Q151.1563,103.6875 151.7188,103.9844 L151.7188,106.7031 Q151.0938,106.125 150.5,105.8516 Q149.9063,105.5781 149.2813,105.5781 Q147.9375,105.5781 147.25,106.6484 Q146.5625,107.7188 146.5625,109.8125 Q146.5625,111.9063 147.25,112.9766 Q147.9375,114.0469 149.2813,114.0469 Q149.9063,114.0469 150.5,113.7734 Q151.0938,113.5 151.7188,112.9219 L151.7188,115.6406 Z "/><text fill="#000000" font-family="sans-serif" font-size="12" lengthAdjust="spacingAndGlyphs" textLength="61" x="162.75" y="114.1543">AllDPlayer</text><line style="stroke: #A80036; stroke-width: 1.5;" x1="134.75" x2="225.75" y1="126" y2="126"/><line style="stroke: #A80036; stroke-width: 1.5;" x1="134.75" x2="225.75" y1="134" y2="134"/><rect fill="#FEFECE" filter="url(#f1)" height="48" style="stroke: #A80036; stroke-width: 1.5;" width="103" x="261.75" y="94"/><ellipse cx="276.75" cy="110" fill="#ADD1B2" rx="11" ry="11" style="stroke: #A80036; stroke-width: 1.0;"/><path d="M279.7188,115.6406 Q279.1406,115.9375 278.5,116.0859 Q277.8594,116.2344 277.1563,116.2344 Q274.6563,116.2344 273.3359,114.5859 Q272.0156,112.9375 272.0156,109.8125 Q272.0156,106.6875 273.3359,105.0313 Q274.6563,103.375 277.1563,103.375 Q277.8594,103.375 278.5078,103.5313 Q279.1563,103.6875 279.7188,103.9844 L279.7188,106.7031 Q279.0938,106.125 278.5,105.8516 Q277.9063,105.5781 277.2813,105.5781 Q275.9375,105.5781 275.25,106.6484 Q274.5625,107.7188 274.5625,109.8125 Q274.5625,111.9063 275.25,112.9766 Q275.9375,114.0469 277.2813,114.0469 Q277.9063,114.0469 278.5,113.7734 Q279.0938,113.5 279.7188,112.9219 L279.7188,115.6406 Z "/><text fill="#000000" font-family="sans-serif" font-size="12" lengthAdjust="spacingAndGlyphs" textLength="71" x="290.75" y="114.1543">PCCDPlayer</text><line style="stroke: #A80036; stroke-width: 1.5;" x1="262.75" x2="363.75" y1="126" y2="126"/><line style="stroke: #A80036; stroke-width: 1.5;" x1="262.75" x2="363.75" y1="134" y2="134"/><rect fill="#FEFECE" filter="url(#f1)" height="48" style="stroke: #A80036; stroke-width: 1.5;" width="104" x="400" y="94"/><ellipse cx="415" cy="110" fill="#ADD1B2" rx="11" ry="11" style="stroke: #A80036; stroke-width: 1.0;"/><path d="M417.9688,115.6406 Q417.3906,115.9375 416.75,116.0859 Q416.1094,116.2344 415.4063,116.2344 Q412.9063,116.2344 411.5859,114.5859 Q410.2656,112.9375 410.2656,109.8125 Q410.2656,106.6875 411.5859,105.0313 Q412.9063,103.375 415.4063,103.375 Q416.1094,103.375 416.7578,103.5313 Q417.4063,103.6875 417.9688,103.9844 L417.9688,106.7031 Q417.3438,106.125 416.75,105.8516 Q416.1563,105.5781 415.5313,105.5781 Q414.1875,105.5781 413.5,106.6484 Q412.8125,107.7188 412.8125,109.8125 Q412.8125,111.9063 413.5,112.9766 Q414.1875,114.0469 415.5313,114.0469 Q416.1563,114.0469 416.75,113.7734 Q417.3438,113.5 417.9688,112.9219 L417.9688,115.6406 Z "/><text fill="#000000" font-family="sans-serif" font-size="12" lengthAdjust="spacingAndGlyphs" textLength="72" x="429" y="114.1543">PDDCPlayer</text><line style="stroke: #A80036; stroke-width: 1.5;" x1="401" x2="503" y1="126" y2="126"/><line style="stroke: #A80036; stroke-width: 1.5;" x1="401" x2="503" y1="134" y2="134"/><path d="M653.135,118 C658.022,118 662.909,118 667.796,118 " fill="none" style="stroke: #A80036; stroke-width: 1.0;"/><polygon fill="none" points="667.887,110.9999,687.887,118,667.887,124.9999,667.887,110.9999" style="stroke: #A80036; stroke-width: 1.0;"/><path d="M68.1882,93.9991 C82.7218,74.785 105.971,49.253 133.5,38 C209.814,6.804 427.318,9.017 504.5,38 C518.488,43.253 531.739,51.721 543.59,61.223 " fill="none" style="stroke: #A80036; stroke-width: 1.0;"/><polygon fill="none" points="548.425,56.153,558.82,74.6176,539.179,66.666,548.425,56.153" style="stroke: #A80036; stroke-width: 1.0;"/><path d="M196.188,93.9991 C210.722,74.785 233.971,49.253 261.5,38 C361.47,-2.866 403.394,0.033 504.5,38 C518.488,43.253 531.739,51.721 543.59,61.223 " fill="none" style="stroke: #A80036; stroke-width: 1.0;"/><polygon fill="none" points="548.425,56.153,558.82,74.6176,539.179,66.666,548.425,56.153" style="stroke: #A80036; stroke-width: 1.0;"/><path d="M330.778,93.9583 C346.624,74.7194 371.718,49.174 400.5,38 C443.589,21.271 461.228,21.751 504.5,38 C518.488,43.253 531.739,51.721 543.59,61.223 " fill="none" style="stroke: #A80036; stroke-width: 1.0;"/><polygon fill="none" points="548.425,56.153,558.82,74.6176,539.179,66.666,548.425,56.153" style="stroke: #A80036; stroke-width: 1.0;"/><path d="M504.031,118 C508.932,118 513.832,118 518.733,118 " fill="none" style="stroke: #A80036; stroke-width: 1.0;"/><polygon fill="none" points="518.879,110.9999,538.879,118,518.879,124.9999,518.879,110.9999" style="stroke: #A80036; stroke-width: 1.0;"/></g></svg>