<?xml version="1.0" encoding="UTF-8" standalone="yes"?><svg xmlns="http://www.w3.org/2000/svg" xmlns:xlink="http://www.w3.org/1999/xlink" height="158px" style="width:551px;height:158px;" version="1.1" viewBox="0 0 551 158" width="551px"><defs><filter height="300%" id="f1" width="300%" x="-1" y="-1"><feGaussianBlur result="blurOut" stdDeviation="2.0"/><feColorMatrix in="blurOut" result="blurOut2" type="matrix" values="0 0 0 0 0 0 0 0 0 0 0 0 0 0 0 0 0 0 .4 0"/><feOffset dx="4.0" dy="4.0" in="blurOut2" result="blurOut3"/><feBlend in="SourceGraphic" in2="blurOut3" mode="normal"/></filter></defs><g><rect fill="#FEFECE" filter="url(#f1)" height="99.2188" style="stroke: #A80036; stroke-width: 1.5;" width="110" x="432.25" y="50.5"/><ellipse cx="456.25" cy="66.5" fill="#ADD1B2" rx="11" ry="11" style="stroke: #A80036; stroke-width: 1.0;"/><path d="M459.2188,72.1406 Q458.6406,72.4375 458,72.5859 Q457.3594,72.7344 456.6563,72.7344 Q454.1563,72.7344 452.8359,71.0859 Q451.5156,69.4375 451.5156,66.3125 Q451.5156,63.1875 452.8359,61.5313 Q454.1563,59.875 456.6563,59.875 Q457.3594,59.875 458.0078,60.0313 Q458.6563,60.1875 459.2188,60.4844 L459.2188,63.2031 Q458.5938,62.625 458,62.3516 Q457.4063,62.0781 456.7813,62.0781 Q455.4375,62.0781 454.75,63.1484 Q454.0625,64.2188 454.0625,66.3125 Q454.0625,68.4063 454.75,69.4766 Q455.4375,70.5469 456.7813,70.5469 Q457.4063,70.5469 458,70.2734 Q458.5938,70 459.2188,69.4219 L459.2188,72.1406 Z "/><text fill="#000000" font-family="sans-serif" font-size="12" lengthAdjust="spacingAndGlyphs" textLength="58" x="472.25" y="70.6543">IPDPlayer</text><line style="stroke: #A80036; stroke-width: 1.5;" x1="433.25" x2="541.25" y1="82.5" y2="82.5"/><ellipse cx="443.25" cy="94.4023" fill="none" rx="3" ry="3" style="stroke: #038048; stroke-width: 1.0;"/><text fill="#000000" font-family="sans-serif" font-size="11" lengthAdjust="spacingAndGlyphs" textLength="10" x="452.25" y="96.7104">id</text><rect fill="none" height="6" style="stroke: #C82930; stroke-width: 1.0;" width="6" x="440.25" y="104.207"/><text fill="#000000" font-family="sans-serif" font-size="11" lengthAdjust="spacingAndGlyphs" textLength="30" x="452.25" y="109.5151">_type</text><rect fill="none" height="6" style="stroke: #C82930; stroke-width: 1.0;" width="6" x="440.25" y="117.0117"/><text fill="#000000" font-family="sans-serif" font-size="11" lengthAdjust="spacingAndGlyphs" textLength="64" x="452.25" y="122.3198">_ingame_id</text><line style="stroke: #A80036; stroke-width: 1.0;" x1="433.25" x2="541.25" y1="128.9141" y2="128.9141"/><ellipse cx="443.25" cy="140.8164" fill="#84BE84" rx="3" ry="3" style="stroke: #038048; stroke-width: 1.0;"/><text fill="#000000" font-family="sans-serif" font-size="11" lengthAdjust="spacingAndGlyphs" textLength="84" x="452.25" y="143.1245">act(game, iter)</text><rect fill="#FEFECE" filter="url(#f1)" height="86.4141" style="stroke: #A80036; stroke-width: 1.5;" width="114" x="283.25" y="57"/><ellipse cx="307.25" cy="73" fill="#ADD1B2" rx="11" ry="11" style="stroke: #A80036; stroke-width: 1.0;"/><path d="M310.2188,78.6406 Q309.6406,78.9375 309,79.0859 Q308.3594,79.2344 307.6563,79.2344 Q305.1563,79.2344 303.8359,77.5859 Q302.5156,75.9375 302.5156,72.8125 Q302.5156,69.6875 303.8359,68.0313 Q305.1563,66.375 307.6563,66.375 Q308.3594,66.375 309.0078,66.5313 Q309.6563,66.6875 310.2188,66.9844 L310.2188,69.7031 Q309.5938,69.125 309,68.8516 Q308.4063,68.5781 307.7813,68.5781 Q306.4375,68.5781 305.75,69.6484 Q305.0625,70.7188 305.0625,72.8125 Q305.0625,74.9063 305.75,75.9766 Q306.4375,77.0469 307.7813,77.0469 Q308.4063,77.0469 309,76.7734 Q309.5938,76.5 310.2188,75.9219 L310.2188,78.6406 Z "/><text fill="#000000" font-family="sans-serif" font-size="12" lengthAdjust="spacingAndGlyphs" textLength="62" x="323.25" y="77.1543">PERPlayer</text><line style="stroke: #A80036; stroke-width: 1.5;" x1="284.25" x2="396.25" y1="89" y2="89"/><rect fill="none" height="6" style="stroke: #C82930; stroke-width: 1.0;" width="6" x="291.25" y="97.9023"/><text fill="#000000" font-family="sans-serif" font-size="11" lengthAdjust="spacingAndGlyphs" textLength="47" x="303.25" y="103.2104">_pattern</text><rect fill="none" height="6" style="stroke: #C82930; stroke-width: 1.0;" width="6" x="291.25" y="110.707"/><text fill="#000000" font-family="sans-serif" font-size="11" lengthAdjust="spacingAndGlyphs" textLength="88" x="303.25" y="116.0151">_pattern_length</text><rect fill="none" height="6" style="stroke: #C82930; stroke-width: 1.0;" width="6" x="291.25" y="123.5117"/><text fill="#000000" font-family="sans-serif" font-size="11" lengthAdjust="spacingAndGlyphs" textLength="27" x="303.25" y="128.8198">_pos</text><line style="stroke: #A80036; stroke-width: 1.5;" x1="284.25" x2="396.25" y1="135.4141" y2="135.4141"/><rect fill="#FEFECE" filter="url(#f1)" height="48" style="stroke: #A80036; stroke-width: 1.5;" width="103" x="6" y="76"/><ellipse cx="21" cy="92" fill="#ADD1B2" rx="11" ry="11" style="stroke: #A80036; stroke-width: 1.0;"/><path d="M23.9688,97.6406 Q23.3906,97.9375 22.75,98.0859 Q22.1094,98.2344 21.4063,98.2344 Q18.9063,98.2344 17.5859,96.5859 Q16.2656,94.9375 16.2656,91.8125 Q16.2656,88.6875 17.5859,87.0313 Q18.9063,85.375 21.4063,85.375 Q22.1094,85.375 22.7578,85.5313 Q23.4063,85.6875 23.9688,85.9844 L23.9688,88.7031 Q23.3438,88.125 22.75,87.8516 Q22.1563,87.5781 21.5313,87.5781 Q20.1875,87.5781 19.5,88.6484 Q18.8125,89.7188 18.8125,91.8125 Q18.8125,93.9063 19.5,94.9766 Q20.1875,96.0469 21.5313,96.0469 Q22.1563,96.0469 22.75,95.7734 Q23.3438,95.5 23.9688,94.9219 L23.9688,97.6406 Z "/><text fill="#000000" font-family="sans-serif" font-size="12" lengthAdjust="spacingAndGlyphs" textLength="71" x="35" y="96.1543">PCCDPlayer</text><line style="stroke: #A80036; stroke-width: 1.5;" x1="7" x2="108" y1="108" y2="108"/><line style="stroke: #A80036; stroke-width: 1.5;" x1="7" x2="108" y1="116" y2="116"/><rect fill="#FEFECE" filter="url(#f1)" height="48" style="stroke: #A80036; stroke-width: 1.5;" width="104" x="144.25" y="76"/><ellipse cx="159.25" cy="92" fill="#ADD1B2" rx="11" ry="11" style="stroke: #A80036; stroke-width: 1.0;"/><path d="M162.2188,97.6406 Q161.6406,97.9375 161,98.0859 Q160.3594,98.2344 159.6563,98.2344 Q157.1563,98.2344 155.8359,96.5859 Q154.5156,94.9375 154.5156,91.8125 Q154.5156,88.6875 155.8359,87.0313 Q157.1563,85.375 159.6563,85.375 Q160.3594,85.375 161.0078,85.5313 Q161.6563,85.6875 162.2188,85.9844 L162.2188,88.7031 Q161.5938,88.125 161,87.8516 Q160.4063,87.5781 159.7813,87.5781 Q158.4375,87.5781 157.75,88.6484 Q157.0625,89.7188 157.0625,91.8125 Q157.0625,93.9063 157.75,94.9766 Q158.4375,96.0469 159.7813,96.0469 Q160.4063,96.0469 161,95.7734 Q161.5938,95.5 162.2188,94.9219 L162.2188,97.6406 Z "/><text fill="#000000" font-family="sans-serif" font-size="12" lengthAdjust="spacingAndGlyphs" textLength="72" x="173.25" y="96.1543">PDDCPlayer</text><line style="stroke: #A80036; stroke-width: 1.5;" x1="145.25" x2="247.25" y1="108" y2="108"/><line style="stroke: #A80036; stroke-width: 1.5;" x1="145.25" x2="247.25" y1="116" y2="116"/><path d="M397.385,100 C402.272,100 407.159,100 412.046,100 " fill="none" style="stroke: #A80036; stroke-width: 1.0;"/><polygon fill="none" points="412.137,92.9999,432.137,100,412.137,106.9999,412.137,92.9999" style="stroke: #A80036; stroke-width: 1.0;"/><path d="M75.0281,75.9583 C90.8744,56.7194 115.968,31.174 144.75,20 C187.839,3.271 205.478,3.751 248.75,20 C262.738,25.253 275.989,33.721 287.84,43.223 " fill="none" style="stroke: #A80036; stroke-width: 1.0;"/><polygon fill="none" points="292.675,38.153,303.07,56.6176,283.429,48.666,292.675,38.153" style="stroke: #A80036; stroke-width: 1.0;"/><path d="M248.281,100 C253.182,100 258.082,100 262.983,100 " fill="none" style="stroke: #A80036; stroke-width: 1.0;"/><polygon fill="none" points="263.129,92.9999,283.129,100,263.129,106.9999,263.129,92.9999" style="stroke: #A80036; stroke-width: 1.0;"/></g></svg>