<?xml version="1.0" encoding="UTF-8" standalone="yes"?><svg xmlns="http://www.w3.org/2000/svg" xmlns:xlink="http://www.w3.org/1999/xlink" height="461px" style="width:638px;height:461px;" version="1.1" viewBox="0 0 638 461" width="638px"><defs><filter height="300%" id="f1" width="300%" x="-1" y="-1"><feGaussianBlur result="blurOut" stdDeviation="2.0"/><feColorMatrix in="blurOut" result="blurOut2" type="matrix" values="0 0 0 0 0 0 0 0 0 0 0 0 0 0 0 0 0 0 .4 0"/><feOffset dx="4.0" dy="4.0" in="blurOut2" result="blurOut3"/><feBlend in="SourceGraphic" in2="blurOut3" mode="normal"/></filter></defs><g><rect fill="#FFFFFF" filter="url(#f1)" height="175.7969" style="stroke: #000000; stroke-width: 2.0;" width="440.5" x="189" y="200.9609"/><line style="stroke: #A80036; stroke-width: 1.0; stroke-dasharray: 5.0,5.0;" x1="98" x2="98" y1="38.2969" y2="422.8906"/><line style="stroke: #A80036; stroke-width: 1.0; stroke-dasharray: 5.0,5.0;" x1="244" x2="244" y1="38.2969" y2="422.8906"/><line style="stroke: #A80036; stroke-width: 1.0; stroke-dasharray: 5.0,5.0;" x1="345" x2="345" y1="38.2969" y2="422.8906"/><line style="stroke: #A80036; stroke-width: 1.0; stroke-dasharray: 5.0,5.0;" x1="480.5" x2="480.5" y1="38.2969" y2="422.8906"/><rect fill="#FEFECE" filter="url(#f1)" height="30.2969" style="stroke: #A80036; stroke-width: 1.5;" width="177" x="8" y="3"/><text fill="#000000" font-family="sans-serif" font-size="14" lengthAdjust="spacingAndGlyphs" textLength="163" x="15" y="22.9951">IPDPairwiseCompetition</text><rect fill="#FEFECE" filter="url(#f1)" height="30.2969" style="stroke: #A80036; stroke-width: 1.5;" width="177" x="8" y="421.8906"/><text fill="#000000" font-family="sans-serif" font-size="14" lengthAdjust="spacingAndGlyphs" textLength="163" x="15" y="441.8857">IPDPairwiseCompetition</text><rect fill="#FEFECE" filter="url(#f1)" height="30.2969" style="stroke: #A80036; stroke-width: 1.5;" width="87" x="199" y="3"/><text fill="#000000" font-family="sans-serif" font-size="14" lengthAdjust="spacingAndGlyphs" textLength="73" x="206" y="22.9951">IPDPlayer1</text><rect fill="#FEFECE" filter="url(#f1)" height="30.2969" style="stroke: #A80036; stroke-width: 1.5;" width="87" x="199" y="421.8906"/><text fill="#000000" font-family="sans-serif" font-size="14" lengthAdjust="spacingAndGlyphs" textLength="73" x="206" y="441.8857">IPDPlayer1</text><rect fill="#FEFECE" filter="url(#f1)" height="30.2969" style="stroke: #A80036; stroke-width: 1.5;" width="87" x="300" y="3"/><text fill="#000000" font-family="sans-serif" font-size="14" lengthAdjust="spacingAndGlyphs" textLength="73" x="307" y="22.9951">IPDPlayer2</text><rect fill="#FEFECE" filter="url(#f1)" height="30.2969" style="stroke: #A80036; stroke-width: 1.5;" width="87" x="300" y="421.8906"/><text fill="#000000" font-family="sans-serif" font-size="14" lengthAdjust="spacingAndGlyphs" textLength="73" x="307" y="441.8857">IPDPlayer2</text><rect fill="#FEFECE" filter="url(#f1)" height="30.2969" style="stroke: #A80036; stroke-width: 1.5;" width="78" x="439.5" y="3"/><text fill="#000000" font-family="sans-serif" font-size="14" lengthAdjust="spacingAndGlyphs" textLength="64" x="446.5" y="22.9951">IPDGame</text><rect fill="#FEFECE" filter="url(#f1)" height="30.2969" style="stroke: #A80036; stroke-width: 1.5;" width="78" x="439.5" y="421.8906"/><text fill="#000000" font-family="sans-serif" font-size="14" lengthAdjust="spacingAndGlyphs" textLength="64" x="446.5" y="441.8857">IPDGame</text><polygon fill="#A80036" points="232.5,65.2969,242.5,69.2969,232.5,73.2969,236.5,69.2969" style="stroke: #A80036; stroke-width: 1.0;"/><line style="stroke: #A80036; stroke-width: 1.0;" x1="98.5" x2="238.5" y1="69.2969" y2="69.2969"/><text fill="#000000" font-family="sans-serif" font-size="13" lengthAdjust="spacingAndGlyphs" textLength="38" x="105.5" y="64.3638">select</text><polygon fill="#A80036" points="333.5,94.4297,343.5,98.4297,333.5,102.4297,337.5,98.4297" style="stroke: #A80036; stroke-width: 1.0;"/><line style="stroke: #A80036; stroke-width: 1.0;" x1="98.5" x2="339.5" y1="98.4297" y2="98.4297"/><text fill="#000000" font-family="sans-serif" font-size="13" lengthAdjust="spacingAndGlyphs" textLength="38" x="105.5" y="93.4966">select</text><polygon fill="#A80036" points="468.5,123.5625,478.5,127.5625,468.5,131.5625,472.5,127.5625" style="stroke: #A80036; stroke-width: 1.0;"/><line style="stroke: #A80036; stroke-width: 1.0;" x1="98.5" x2="474.5" y1="127.5625" y2="127.5625"/><text fill="#000000" font-family="sans-serif" font-size="13" lengthAdjust="spacingAndGlyphs" text-decoration="underline" textLength="19" x="105.5" y="122.6294">init</text><line style="stroke: #000000; stroke-width: 1.0;" x1="105.5" x2="124.5" y1="124.6294" y2="124.6294"/><text fill="#000000" font-family="sans-serif" font-size="13" lengthAdjust="spacingAndGlyphs" textLength="10" x="124.5" y="122.6294">()</text><polygon fill="#A80036" points="255.5,152.6953,245.5,156.6953,255.5,160.6953,251.5,156.6953" style="stroke: #A80036; stroke-width: 1.0;"/><line style="stroke: #A80036; stroke-width: 1.0;" x1="249.5" x2="479.5" y1="156.6953" y2="156.6953"/><text fill="#000000" font-family="sans-serif" font-size="13" lengthAdjust="spacingAndGlyphs" textLength="111" x="261.5" y="151.7622">set_ingame_id(0)</text><polygon fill="#A80036" points="356.5,181.8281,346.5,185.8281,356.5,189.8281,352.5,185.8281" style="stroke: #A80036; stroke-width: 1.0;"/><line style="stroke: #A80036; stroke-width: 1.0;" x1="350.5" x2="479.5" y1="185.8281" y2="185.8281"/><text fill="#000000" font-family="sans-serif" font-size="13" lengthAdjust="spacingAndGlyphs" textLength="111" x="362.5" y="180.895">set_ingame_id(1)</text><rect fill="none" height="175.7969" style="stroke: #000000; stroke-width: 2.0;" width="440.5" x="189" y="200.9609"/><polygon fill="#EEEEEE" points="189,200.9609,266,200.9609,266,207.9609,256,217.9609,189,217.9609,189,200.9609" style="stroke: #000000; stroke-width: 2.0;"/><text fill="#000000" font-family="sans-serif" font-size="13" font-weight="bold" lengthAdjust="spacingAndGlyphs" textLength="32" x="204" y="214.0278">loop</text><text fill="#000000" font-family="sans-serif" font-size="11" font-weight="bold" lengthAdjust="spacingAndGlyphs" textLength="61" x="281" y="213.1714">[i:n_iters]</text><polygon fill="#A80036" points="255.5,235.0938,245.5,239.0938,255.5,243.0938,251.5,239.0938" style="stroke: #A80036; stroke-width: 1.0;"/><line style="stroke: #A80036; stroke-width: 1.0;" x1="249.5" x2="479.5" y1="239.0938" y2="239.0938"/><text fill="#000000" font-family="sans-serif" font-size="13" lengthAdjust="spacingAndGlyphs" textLength="63" x="261.5" y="234.1606">act(self, i)</text><polygon fill="#A80036" points="468.5,264.2266,478.5,268.2266,468.5,272.2266,472.5,268.2266" style="stroke: #A80036; stroke-width: 1.0;"/><line style="stroke: #A80036; stroke-width: 1.0; stroke-dasharray: 2.0,2.0;" x1="244.5" x2="474.5" y1="268.2266" y2="268.2266"/><text fill="#000000" font-family="sans-serif" font-size="13" lengthAdjust="spacingAndGlyphs" textLength="39" x="251.5" y="263.2935">action</text><polygon fill="#A80036" points="356.5,293.3594,346.5,297.3594,356.5,301.3594,352.5,297.3594" style="stroke: #A80036; stroke-width: 1.0;"/><line style="stroke: #A80036; stroke-width: 1.0;" x1="350.5" x2="479.5" y1="297.3594" y2="297.3594"/><text fill="#000000" font-family="sans-serif" font-size="13" lengthAdjust="spacingAndGlyphs" textLength="63" x="362.5" y="292.4263">act(self, i)</text><polygon fill="#A80036" points="468.5,322.4922,478.5,326.4922,468.5,330.4922,472.5,326.4922" style="stroke: #A80036; stroke-width: 1.0;"/><line style="stroke: #A80036; stroke-width: 1.0; stroke-dasharray: 2.0,2.0;" x1="345.5" x2="474.5" y1="326.4922" y2="326.4922"/><text fill="#000000" font-family="sans-serif" font-size="13" lengthAdjust="spacingAndGlyphs" textLength="39" x="352.5" y="321.5591">action</text><line style="stroke: #A80036; stroke-width: 1.0;" x1="480.5" x2="522.5" y1="355.7578" y2="355.7578"/><line style="stroke: #A80036; stroke-width: 1.0;" x1="522.5" x2="522.5" y1="355.7578" y2="368.7578"/><line style="stroke: #A80036; stroke-width: 1.0;" x1="481.5" x2="522.5" y1="368.7578" y2="368.7578"/><polygon fill="#A80036" points="491.5,364.7578,481.5,368.7578,491.5,372.7578,487.5,368.7578" style="stroke: #A80036; stroke-width: 1.0;"/><text fill="#000000" font-family="sans-serif" font-size="13" lengthAdjust="spacingAndGlyphs" textLength="130" x="487.5" y="350.6919">_get_payoff(actions)</text><polygon fill="#A80036" points="109.5,400.7578,99.5,404.7578,109.5,408.7578,105.5,404.7578" style="stroke: #A80036; stroke-width: 1.0;"/><line style="stroke: #A80036; stroke-width: 1.0; stroke-dasharray: 2.0,2.0;" x1="103.5" x2="479.5" y1="404.7578" y2="404.7578"/><text fill="#000000" font-family="sans-serif" font-size="13" lengthAdjust="spacingAndGlyphs" textLength="104" x="115.5" y="399.8247">actions, rewards</text></g></svg>