<?xml version="1.0" encoding="UTF-8" standalone="yes"?><svg xmlns="http://www.w3.org/2000/svg" xmlns:xlink="http://www.w3.org/1999/xlink" height="250px" style="width:549px;height:250px;" version="1.1" viewBox="0 0 549 250" width="549px"><defs><filter height="300%" id="f1" width="300%" x="-1" y="-1"><feGaussianBlur result="blurOut" stdDeviation="2.0"/><feColorMatrix in="blurOut" result="blurOut2" type="matrix" values="0 0 0 0 0 0 0 0 0 0 0 0 0 0 0 0 0 0 .4 0"/><feOffset dx="4.0" dy="4.0" in="blurOut2" result="blurOut3"/><feBlend in="SourceGraphic" in2="blurOut3" mode="normal"/></filter></defs><g><rect fill="#FEFECE" filter="url(#f1)" height="99.2188" style="stroke: #A80036; stroke-width: 1.5;" width="110" x="430.25" y="142.5"/><ellipse cx="454.25" cy="158.5" fill="#ADD1B2" rx="11" ry="11" style="stroke: #A80036; stroke-width: 1.0;"/><path d="M457.2188,164.1406 Q456.6406,164.4375 456,164.5859 Q455.3594,164.7344 454.6563,164.7344 Q452.1563,164.7344 450.8359,163.0859 Q449.5156,161.4375 449.5156,158.3125 Q449.5156,155.1875 450.8359,153.5313 Q452.1563,151.875 454.6563,151.875 Q455.3594,151.875 456.0078,152.0313 Q456.6563,152.1875 457.2188,152.4844 L457.2188,155.2031 Q456.5938,154.625 456,154.3516 Q455.4063,154.0781 454.7813,154.0781 Q453.4375,154.0781 452.75,155.1484 Q452.0625,156.2188 452.0625,158.3125 Q452.0625,160.4063 452.75,161.4766 Q453.4375,162.5469 454.7813,162.5469 Q455.4063,162.5469 456,162.2734 Q456.5938,162 457.2188,161.4219 L457.2188,164.1406 Z "/><text fill="#000000" font-family="sans-serif" font-size="12" lengthAdjust="spacingAndGlyphs" textLength="58" x="470.25" y="162.6543">IPDPlayer</text><line style="stroke: #A80036; stroke-width: 1.5;" x1="431.25" x2="539.25" y1="174.5" y2="174.5"/><ellipse cx="441.25" cy="186.4023" fill="none" rx="3" ry="3" style="stroke: #038048; stroke-width: 1.0;"/><text fill="#000000" font-family="sans-serif" font-size="11" lengthAdjust="spacingAndGlyphs" textLength="10" x="450.25" y="188.7104">id</text><rect fill="none" height="6" style="stroke: #C82930; stroke-width: 1.0;" width="6" x="438.25" y="196.207"/><text fill="#000000" font-family="sans-serif" font-size="11" lengthAdjust="spacingAndGlyphs" textLength="30" x="450.25" y="201.5151">_type</text><rect fill="none" height="6" style="stroke: #C82930; stroke-width: 1.0;" width="6" x="438.25" y="209.0117"/><text fill="#000000" font-family="sans-serif" font-size="11" lengthAdjust="spacingAndGlyphs" textLength="64" x="450.25" y="214.3198">_ingame_id</text><line style="stroke: #A80036; stroke-width: 1.0;" x1="431.25" x2="539.25" y1="220.9141" y2="220.9141"/><ellipse cx="441.25" cy="232.8164" fill="#84BE84" rx="3" ry="3" style="stroke: #038048; stroke-width: 1.0;"/><text fill="#000000" font-family="sans-serif" font-size="11" lengthAdjust="spacingAndGlyphs" textLength="84" x="450.25" y="235.1245">act(game, iter)</text><rect fill="#FEFECE" filter="url(#f1)" height="73.6094" style="stroke: #A80036; stroke-width: 1.5;" width="109" x="286" y="155"/><ellipse cx="310.45" cy="171" fill="#ADD1B2" rx="11" ry="11" style="stroke: #A80036; stroke-width: 1.0;"/><path d="M313.4188,176.6406 Q312.8406,176.9375 312.2,177.0859 Q311.5594,177.2344 310.8563,177.2344 Q308.3563,177.2344 307.0359,175.5859 Q305.7156,173.9375 305.7156,170.8125 Q305.7156,167.6875 307.0359,166.0313 Q308.3563,164.375 310.8563,164.375 Q311.5594,164.375 312.2078,164.5313 Q312.8563,164.6875 313.4188,164.9844 L313.4188,167.7031 Q312.7938,167.125 312.2,166.8516 Q311.6063,166.5781 310.9813,166.5781 Q309.6375,166.5781 308.95,167.6484 Q308.2625,168.7188 308.2625,170.8125 Q308.2625,172.9063 308.95,173.9766 Q309.6375,175.0469 310.9813,175.0469 Q311.6063,175.0469 312.2,174.7734 Q312.7938,174.5 313.4188,173.9219 L313.4188,176.6406 Z "/><text fill="#000000" font-family="sans-serif" font-size="12" lengthAdjust="spacingAndGlyphs" textLength="56" x="326.55" y="175.1543">M1Player</text><line style="stroke: #A80036; stroke-width: 1.5;" x1="287" x2="394" y1="187" y2="187"/><rect fill="none" height="6" style="stroke: #C82930; stroke-width: 1.0;" width="6" x="294" y="195.9023"/><text fill="#000000" font-family="sans-serif" font-size="11" lengthAdjust="spacingAndGlyphs" textLength="72" x="306" y="201.2104">_cond_probs</text><rect fill="none" height="6" style="stroke: #C82930; stroke-width: 1.0;" width="6" x="294" y="208.707"/><text fill="#000000" font-family="sans-serif" font-size="11" lengthAdjust="spacingAndGlyphs" textLength="83" x="306" y="214.0151">_default_policy</text><line style="stroke: #A80036; stroke-width: 1.5;" x1="287" x2="394" y1="220.6094" y2="220.6094"/><rect fill="#FEFECE" filter="url(#f1)" height="73.6094" style="stroke: #A80036; stroke-width: 1.5;" width="111" x="140" y="155"/><ellipse cx="164" cy="171" fill="#ADD1B2" rx="11" ry="11" style="stroke: #A80036; stroke-width: 1.0;"/><path d="M166.9688,176.6406 Q166.3906,176.9375 165.75,177.0859 Q165.1094,177.2344 164.4063,177.2344 Q161.9063,177.2344 160.5859,175.5859 Q159.2656,173.9375 159.2656,170.8125 Q159.2656,167.6875 160.5859,166.0313 Q161.9063,164.375 164.4063,164.375 Q165.1094,164.375 165.7578,164.5313 Q166.4063,164.6875 166.9688,164.9844 L166.9688,167.7031 Q166.3438,167.125 165.75,166.8516 Q165.1563,166.5781 164.5313,166.5781 Q163.1875,166.5781 162.5,167.6484 Q161.8125,168.7188 161.8125,170.8125 Q161.8125,172.9063 162.5,173.9766 Q163.1875,175.0469 164.5313,175.0469 Q165.1563,175.0469 165.75,174.7734 Q166.3438,174.5 166.9688,173.9219 L166.9688,176.6406 Z "/><text fill="#000000" font-family="sans-serif" font-size="12" lengthAdjust="spacingAndGlyphs" textLength="59" x="180" y="175.1543">TFTPlayer</text><line style="stroke: #A80036; stroke-width: 1.5;" x1="141" x2="250" y1="187" y2="187"/><rect fill="none" height="6" style="stroke: #C82930; stroke-width: 1.0;" width="6" x="148" y="195.9023"/><text fill="#000000" font-family="sans-serif" font-size="11" lengthAdjust="spacingAndGlyphs" textLength="85" x="160" y="201.2104">_cond_probs_0</text><rect fill="none" height="6" style="stroke: #C82930; stroke-width: 1.0;" width="6" x="148" y="208.707"/><text fill="#000000" font-family="sans-serif" font-size="11" lengthAdjust="spacingAndGlyphs" textLength="85" x="160" y="214.0151">_cond_probs_1</text><line style="stroke: #A80036; stroke-width: 1.5;" x1="141" x2="250" y1="220.6094" y2="220.6094"/><rect fill="#FEFECE" filter="url(#f1)" height="60.8047" style="stroke: #A80036; stroke-width: 1.5;" width="100" x="10.25" y="14.5"/><ellipse cx="25.25" cy="30.5" fill="#ADD1B2" rx="11" ry="11" style="stroke: #A80036; stroke-width: 1.0;"/><path d="M28.2188,36.1406 Q27.6406,36.4375 27,36.5859 Q26.3594,36.7344 25.6563,36.7344 Q23.1563,36.7344 21.8359,35.0859 Q20.5156,33.4375 20.5156,30.3125 Q20.5156,27.1875 21.8359,25.5313 Q23.1563,23.875 25.6563,23.875 Q26.3594,23.875 27.0078,24.0313 Q27.6563,24.1875 28.2188,24.4844 L28.2188,27.2031 Q27.5938,26.625 27,26.3516 Q26.4063,26.0781 25.7813,26.0781 Q24.4375,26.0781 23.75,27.1484 Q23.0625,28.2188 23.0625,30.3125 Q23.0625,32.4063 23.75,33.4766 Q24.4375,34.5469 25.7813,34.5469 Q26.4063,34.5469 27,34.2734 Q27.5938,34 28.2188,33.4219 L28.2188,36.1406 Z "/><text fill="#000000" font-family="sans-serif" font-size="12" lengthAdjust="spacingAndGlyphs" textLength="68" x="39.25" y="34.6543">GTFTPlayer</text><line style="stroke: #A80036; stroke-width: 1.5;" x1="11.25" x2="109.25" y1="46.5" y2="46.5"/><rect fill="none" height="6" style="stroke: #C82930; stroke-width: 1.0;" width="6" x="18.25" y="55.4023"/><text fill="#000000" font-family="sans-serif" font-size="11" lengthAdjust="spacingAndGlyphs" textLength="35" x="30.25" y="60.7104">_theta</text><line style="stroke: #A80036; stroke-width: 1.5;" x1="11.25" x2="109.25" y1="67.3047" y2="67.3047"/><rect fill="#FEFECE" filter="url(#f1)" height="73.6094" style="stroke: #A80036; stroke-width: 1.5;" width="99" x="146" y="8"/><ellipse cx="161" cy="24" fill="#ADD1B2" rx="11" ry="11" style="stroke: #A80036; stroke-width: 1.0;"/><path d="M163.9688,29.6406 Q163.3906,29.9375 162.75,30.0859 Q162.1094,30.2344 161.4063,30.2344 Q158.9063,30.2344 157.5859,28.5859 Q156.2656,26.9375 156.2656,23.8125 Q156.2656,20.6875 157.5859,19.0313 Q158.9063,17.375 161.4063,17.375 Q162.1094,17.375 162.7578,17.5313 Q163.4063,17.6875 163.9688,17.9844 L163.9688,20.7031 Q163.3438,20.125 162.75,19.8516 Q162.1563,19.5781 161.5313,19.5781 Q160.1875,19.5781 159.5,20.6484 Q158.8125,21.7188 158.8125,23.8125 Q158.8125,25.9063 159.5,26.9766 Q160.1875,28.0469 161.5313,28.0469 Q162.1563,28.0469 162.75,27.7734 Q163.3438,27.5 163.9688,26.9219 L163.9688,29.6406 Z "/><text fill="#000000" font-family="sans-serif" font-size="12" lengthAdjust="spacingAndGlyphs" textLength="67" x="175" y="28.1543">ATFTPlayer</text><line style="stroke: #A80036; stroke-width: 1.5;" x1="147" x2="244" y1="40" y2="40"/><rect fill="none" height="6" style="stroke: #C82930; stroke-width: 1.0;" width="6" x="154" y="48.9023"/><text fill="#000000" font-family="sans-serif" font-size="11" lengthAdjust="spacingAndGlyphs" textLength="35" x="166" y="54.2104">_theta</text><rect fill="none" height="6" style="stroke: #C82930; stroke-width: 1.0;" width="6" x="154" y="61.707"/><text fill="#000000" font-family="sans-serif" font-size="11" lengthAdjust="spacingAndGlyphs" textLength="37" x="166" y="67.0151">_world</text><line style="stroke: #A80036; stroke-width: 1.5;" x1="147" x2="244" y1="73.6094" y2="73.6094"/><rect fill="#FEFECE" filter="url(#f1)" height="48" style="stroke: #A80036; stroke-width: 1.5;" width="99" x="6" y="168"/><ellipse cx="21" cy="184" fill="#ADD1B2" rx="11" ry="11" style="stroke: #A80036; stroke-width: 1.0;"/><path d="M23.9688,189.6406 Q23.3906,189.9375 22.75,190.0859 Q22.1094,190.2344 21.4063,190.2344 Q18.9063,190.2344 17.5859,188.5859 Q16.2656,186.9375 16.2656,183.8125 Q16.2656,180.6875 17.5859,179.0313 Q18.9063,177.375 21.4063,177.375 Q22.1094,177.375 22.7578,177.5313 Q23.4063,177.6875 23.9688,177.9844 L23.9688,180.7031 Q23.3438,180.125 22.75,179.8516 Q22.1563,179.5781 21.5313,179.5781 Q20.1875,179.5781 19.5,180.6484 Q18.8125,181.7188 18.8125,183.8125 Q18.8125,185.9063 19.5,186.9766 Q20.1875,188.0469 21.5313,188.0469 Q22.1563,188.0469 22.75,187.7734 Q23.3438,187.5 23.9688,186.9219 L23.9688,189.6406 Z "/><text fill="#000000" font-family="sans-serif" font-size="12" lengthAdjust="spacingAndGlyphs" textLength="67" x="35" y="188.1543">STFTPlayer</text><line style="stroke: #A80036; stroke-width: 1.5;" x1="7" x2="104" y1="200" y2="200"/><line style="stroke: #A80036; stroke-width: 1.5;" x1="7" x2="104" y1="208" y2="208"/><rect fill="#FEFECE" filter="url(#f1)" height="48" style="stroke: #A80036; stroke-width: 1.5;" width="99" x="280" y="21"/><ellipse cx="295" cy="37" fill="#ADD1B2" rx="11" ry="11" style="stroke: #A80036; stroke-width: 1.0;"/><path d="M297.9688,42.6406 Q297.3906,42.9375 296.75,43.0859 Q296.1094,43.2344 295.4063,43.2344 Q292.9063,43.2344 291.5859,41.5859 Q290.2656,39.9375 290.2656,36.8125 Q290.2656,33.6875 291.5859,32.0313 Q292.9063,30.375 295.4063,30.375 Q296.1094,30.375 296.7578,30.5313 Q297.4063,30.6875 297.9688,30.9844 L297.9688,33.7031 Q297.3438,33.125 296.75,32.8516 Q296.1563,32.5781 295.5313,32.5781 Q294.1875,32.5781 293.5,33.6484 Q292.8125,34.7188 292.8125,36.8125 Q292.8125,38.9063 293.5,39.9766 Q294.1875,41.0469 295.5313,41.0469 Q296.1563,41.0469 296.75,40.7734 Q297.3438,40.5 297.9688,39.9219 L297.9688,42.6406 Z "/><text fill="#000000" font-family="sans-serif" font-size="12" lengthAdjust="spacingAndGlyphs" textLength="67" x="309" y="41.1543">RTFTPlayer</text><line style="stroke: #A80036; stroke-width: 1.5;" x1="281" x2="378" y1="53" y2="53"/><line style="stroke: #A80036; stroke-width: 1.5;" x1="281" x2="378" y1="61" y2="61"/><path d="M394.625,192 C399.695,192 404.766,192 409.836,192 " fill="none" style="stroke: #A80036; stroke-width: 1.0;"/><polygon fill="none" points="410.025,184.9999,430.025,192,410.025,198.9999,410.025,184.9999" style="stroke: #A80036; stroke-width: 1.0;"/><path d="M250.758,192 C255.674,192 260.59,192 265.506,192 " fill="none" style="stroke: #A80036; stroke-width: 1.0;"/><polygon fill="none" points="265.716,184.9999,285.716,192,265.716,198.9999,265.716,184.9999" style="stroke: #A80036; stroke-width: 1.0;"/><path d="M104.7422,192 C109.664,192 114.586,192 119.508,192 " fill="none" style="stroke: #A80036; stroke-width: 1.0;"/><polygon fill="none" points="119.743,184.9999,139.743,192,119.743,198.9999,119.743,184.9999" style="stroke: #A80036; stroke-width: 1.0;"/><path d="M87.895,75.693 C105.173,94.251 127.879,118.638 147.957,140.204 " fill="none" style="stroke: #A80036; stroke-width: 1.0;"/><polygon fill="none" points="153.162,135.522,161.667,154.9295,142.915,145.0615,153.162,135.522" style="stroke: #A80036; stroke-width: 1.0;"/><path d="M307.721,69.297 C290.159,88.3 264.706,115.842 242.454,139.921 " fill="none" style="stroke: #A80036; stroke-width: 1.0;"/><polygon fill="none" points="247.476,144.8003,228.761,154.7377,237.194,135.298,247.476,144.8003" style="stroke: #A80036; stroke-width: 1.0;"/><path d="M195.25,82.216 C195.25,98.106 195.25,117.129 195.25,134.792 " fill="none" style="stroke: #A80036; stroke-width: 1.0;"/><polygon fill="none" points="202.25,134.995,195.25,154.995,188.25,134.995,202.25,134.995" style="stroke: #A80036; stroke-width: 1.0;"/></g></svg>